<svg width="541" height="468" viewBox="0 0 541 468" fill="none" xmlns="http://www.w3.org/2000/svg">
<g clip-path="url(#clip0_1_1862)">
<path d="M34.5854 466.797L93.8061 466.538L153.038 466.44L271.479 466.257L389.92 466.44L449.152 466.527L508.372 466.797L449.152 467.056L389.92 467.153L271.479 467.337L153.038 467.153L93.8061 467.056L34.5854 466.797Z" fill="#263238"/>
<path d="M294.291 466.797H200.432C197.472 434.978 194.502 402.37 192.148 376.373C192.072 375.509 191.986 374.645 191.91 373.791C189.253 344.381 187.449 324.054 187.449 324.054H276.016C276.022 324.144 276.022 324.234 276.016 324.324C276.674 329.141 285.693 399.432 294.291 466.797Z" fill="#37474F"/>
<path d="M214.657 466.797H213.155C209.062 432.342 205.735 397.823 202.711 363.261C202.538 361.194 202.358 359.124 202.171 357.05C201.566 349.954 200.961 342.826 200.378 335.719C200.378 335.503 200.691 335.503 200.724 335.719C201.386 342.019 202.027 348.305 202.646 354.577C202.651 354.594 202.651 354.613 202.646 354.631C202.862 356.921 203.1 359.2 203.327 361.5C205.735 385.348 208.122 409.175 210.736 432.99C211.982 444.274 213.288 455.542 214.657 466.797Z" fill="#263238"/>
<path d="M263.227 324.054L251.346 402.597L250.925 405.254L249.845 412.329L249.759 412.825L249.478 414.726L241.572 466.797H191.154C185.98 437.635 180.688 407.738 176.303 382.929C176.205 382.367 176.108 381.849 176.011 381.287C170.103 347.902 165.88 324.043 165.88 324.043L263.227 324.054Z" fill="#263238"/>
<path d="M276.102 323.978C276.102 323.978 276.102 324.086 276.048 324.323C275.346 328.903 267.72 378.014 255.051 410.244C254.965 410.514 254.867 410.762 254.749 411.043C254.749 411.043 252.967 411.594 249.748 412.868C248.495 413.365 247.004 413.948 245.32 414.704L243.483 415.525C239.768 417.189 235.264 419.37 230.123 422.157C229.626 422.416 229.14 422.686 228.654 422.956C228.654 422.956 228.654 423.161 228.654 423.539C228.395 426.92 227.077 444.266 225.414 466.743H136.999C143.803 396.613 151.277 323.924 151.277 323.924L276.102 323.978Z" fill="#37474F"/>
<path d="M161.171 337.64C158.654 370.539 156.245 403.439 153.61 436.295C152.789 446.462 151.947 456.629 151.083 466.796H149.787C153.524 423.751 157.077 380.707 160.447 337.662C160.469 337.187 161.203 337.187 161.171 337.64Z" fill="#263238"/>
<path d="M259.22 408.732C248.639 412.583 238.411 417.346 228.654 422.967C228.612 422.986 228.574 423.012 228.543 423.045C228.511 423.078 228.486 423.117 228.47 423.16C228.453 423.202 228.445 423.248 228.446 423.293C228.447 423.339 228.457 423.384 228.476 423.426C228.494 423.468 228.521 423.506 228.554 423.537C228.587 423.569 228.626 423.594 228.668 423.61C228.711 423.627 228.757 423.635 228.802 423.634C228.848 423.633 228.893 423.623 228.935 423.604C239.228 419.176 249.726 414.964 259.771 409.963C259.934 409.89 260.062 409.755 260.126 409.588C260.19 409.421 260.184 409.235 260.111 409.072C260.038 408.909 259.903 408.781 259.736 408.717C259.569 408.653 259.384 408.659 259.22 408.732Z" fill="#263238"/>
<path d="M262.492 338.073C262.492 337.716 261.834 337.641 261.844 338.073C261.92 350.299 261.142 361.046 260.116 372.473C259.63 377.776 255.364 407.09 246.172 404.951C244.628 404.595 243.84 403.083 243.602 400.76C243.31 397.974 244.358 394.55 244.822 391.774C245.902 385.629 246.669 379.472 247.188 373.283C248.259 361.741 248.136 350.119 246.821 338.602C246.807 338.533 246.77 338.471 246.716 338.426C246.662 338.381 246.594 338.356 246.524 338.356C246.453 338.356 246.385 338.381 246.331 338.426C246.277 338.471 246.24 338.533 246.226 338.602C246.226 354.62 245.816 370.605 243.418 386.471C242.273 394.096 238.428 405.578 246.41 406.744C254.392 407.911 259.781 388.718 260.775 383.458C263.54 368.769 263.648 352.924 262.492 338.073Z" fill="#263238"/>
<path d="M246.411 405.696C245.594 407.677 244.905 409.708 244.348 411.777C243.753 413.372 243.46 415.064 243.484 416.767C243.497 416.835 243.53 416.897 243.579 416.947C243.627 416.996 243.689 417.03 243.757 417.045C243.824 417.06 243.895 417.055 243.959 417.03C244.024 417.006 244.08 416.963 244.121 416.907C245.082 415.405 245.81 413.767 246.281 412.047C246.983 410.168 247.718 408.299 248.366 406.398C248.381 406.164 248.32 405.931 248.192 405.735C248.063 405.538 247.874 405.389 247.653 405.31C247.432 405.23 247.191 405.225 246.967 405.295C246.743 405.365 246.548 405.505 246.411 405.696Z" fill="#263238"/>
<path d="M204.795 347.664C204.812 346.386 204.682 345.11 204.406 343.862C204.396 343.819 204.372 343.782 204.338 343.755C204.303 343.728 204.261 343.713 204.217 343.713C204.174 343.713 204.131 343.728 204.097 343.755C204.063 343.782 204.039 343.819 204.028 343.862C203.771 344.923 203.63 346.01 203.607 347.102C203.477 348.366 203.305 349.619 203.175 350.882C202.9 353.463 202.449 356.021 201.825 358.54C200.664 363.304 198.239 367.666 194.804 371.166C191.389 374.519 187.354 377.175 182.924 378.986C177.988 381.081 172.782 381.859 167.684 383.36C167.468 383.414 167.532 383.727 167.684 383.738C173.345 383.724 178.951 382.624 184.198 380.498C188.834 378.755 193.054 376.062 196.587 372.592C200.133 369.013 202.628 364.53 203.802 359.631C204.392 357.111 204.725 354.538 204.795 351.952C204.881 350.524 204.881 349.092 204.795 347.664V347.664Z" fill="#263238"/>
<path d="M238.137 210.818C245.255 226.76 297.066 300.616 338.703 309.538C345.724 311.039 367.509 317.93 380.114 299.925C397.146 275.612 408.012 229.05 405.625 204.219C403.649 183.698 347.538 199.089 344.233 210.775C341.738 219.621 337.299 248.643 335.485 248.178C323.69 245.132 288.555 214.696 253.539 195.957C237.306 187.208 232.661 198.495 238.137 210.818Z" fill="#FFCCB3"/>
<path d="M332.039 260.793C332.282 258.977 332.617 257.174 333.043 255.392C333.936 251.958 335.144 248.614 336.651 245.402C336.716 245.261 336.975 245.348 336.921 245.51C335.841 248.825 335.052 252.271 334.167 255.652C333.735 257.336 333.324 259.011 332.946 260.706C332.568 262.402 332.093 264.163 331.801 265.912C331.801 266.009 331.607 265.999 331.618 265.912C331.736 264.173 331.801 262.488 332.039 260.793Z" fill="#263238"/>
<path d="M405.884 208.01C405.884 208.01 404.955 181.116 395.31 163.23C388.646 150.863 371.137 125.578 329.241 123.958C319.305 123.58 304.864 130.082 320.871 136.595C332.244 141.229 340.852 140.732 346.976 144.631C346.976 144.631 329.598 155.086 329.598 165.055C329.598 169.516 328.939 179.172 330.516 188.612C330.516 188.612 333.616 191.323 336.37 191.204C336.37 191.204 336.672 200.536 347.171 210.17L405.884 208.01Z" fill="#FFCCB3"/>
<path d="M277.959 151.9C272.861 155.335 270.075 163.446 274.179 171.158C278.283 178.87 288.674 177.887 293.621 174.506C298.567 171.126 302.747 162.69 298.524 155.497C294.949 149.254 286.935 145.884 277.959 151.9Z" fill="#5DBD6D"/>
<path opacity="0.1" d="M277.959 151.9C272.861 155.335 270.075 163.446 274.179 171.158C278.283 178.87 288.674 177.887 293.621 174.506C298.567 171.126 302.747 162.69 298.524 155.497C294.949 149.254 286.935 145.884 277.959 151.9Z" fill="black"/>
<path d="M279.515 153.919C275.356 156.717 273.088 163.349 276.436 169.645C279.785 175.942 288.317 175.143 292.335 172.378C296.353 169.613 299.799 162.733 296.353 156.846C293.372 151.748 286.827 149.005 279.515 153.919Z" fill="#5DBD6D"/>
<path d="M288.22 157.419C288.587 157.71 289.905 156.609 289.181 156.09C288.458 155.572 287.745 157.052 288.22 157.419Z" fill="white"/>
<path d="M291.298 164.645C291.115 165.066 292.508 166.071 292.832 165.239C293.156 164.407 291.547 164.083 291.298 164.645Z" fill="white"/>
<path d="M294.387 161.837C294.463 162.29 296.18 162.366 295.997 161.491C295.813 160.616 294.29 161.232 294.387 161.837Z" fill="white"/>
<path d="M288.134 154.254C288.587 154.179 288.674 152.472 287.799 152.645C286.924 152.818 287.529 154.352 288.134 154.254Z" fill="white"/>
<path d="M279.915 160.238C280.034 159.796 278.5 159.018 278.306 159.893C278.111 160.768 279.753 160.832 279.915 160.238Z" fill="white"/>
<path d="M283.587 169.776C283.209 169.506 281.945 170.661 282.69 171.147C283.436 171.633 284.084 170.143 283.587 169.776Z" fill="white"/>
<path d="M286.6 169.203C286.146 169.127 285.52 170.726 286.405 170.834C287.291 170.942 287.205 169.3 286.6 169.203Z" fill="white"/>
<path d="M283.436 162.442C283.76 162.117 282.809 160.681 282.215 161.361C281.621 162.042 283.004 162.874 283.436 162.442Z" fill="white"/>
<path d="M274.19 163.63C274.19 163.63 282.561 162.701 283.662 164.397C284.764 166.092 278.813 173.545 277.83 172.886C276.847 172.227 273.283 166.46 274.19 163.63Z" fill="#5DBD6D"/>
<path opacity="0.1" d="M274.19 163.63C274.19 163.63 282.561 162.701 283.662 164.397C284.764 166.092 278.813 173.545 277.83 172.886C276.847 172.227 273.283 166.46 274.19 163.63Z" fill="black"/>
<path d="M288.501 174.733C288.501 174.733 286.028 166.675 287.497 165.282C288.966 163.889 297.379 168.339 296.926 169.43C296.472 170.521 291.45 175.089 288.501 174.733Z" fill="#5DBD6D"/>
<path opacity="0.1" d="M288.501 174.733C288.501 174.733 286.028 166.675 287.497 165.282C288.966 163.889 297.379 168.339 296.926 169.43C296.472 170.521 291.45 175.089 288.501 174.733Z" fill="black"/>
<path d="M299.161 159.892C299.161 159.892 290.974 161.88 289.667 160.335C288.361 158.791 293.307 150.614 294.366 151.176C295.424 151.738 299.691 156.965 299.161 159.892Z" fill="#5DBD6D"/>
<path opacity="0.1" d="M299.161 159.892C299.161 159.892 290.974 161.88 289.667 160.335C288.361 158.791 293.307 150.614 294.366 151.176C295.424 151.738 299.691 156.965 299.161 159.892Z" fill="black"/>
<path d="M285.282 150.096C285.282 150.096 287.281 158.283 285.736 159.59C284.191 160.897 276.015 155.95 276.566 154.891C277.117 153.833 282.366 149.556 285.282 150.096Z" fill="#5DBD6D"/>
<path opacity="0.1" d="M285.282 150.096C285.282 150.096 287.281 158.283 285.736 159.59C284.191 160.897 276.015 155.95 276.566 154.891C277.117 153.833 282.366 149.556 285.282 150.096Z" fill="black"/>
<path d="M302.488 163.824C298.546 165.325 279.677 169.084 279.677 169.084L280.044 168.188L300.274 161.891C300.419 161.835 300.538 161.725 300.607 161.585C300.675 161.445 300.687 161.284 300.641 161.135C300.618 161.056 300.579 160.983 300.527 160.921C300.475 160.858 300.41 160.806 300.338 160.769C300.265 160.731 300.185 160.709 300.104 160.703C300.022 160.698 299.941 160.708 299.863 160.735L280.951 165.919L281.545 164.483L302.24 157.722C302.327 157.706 302.41 157.672 302.483 157.622C302.556 157.572 302.618 157.506 302.664 157.431C302.71 157.355 302.74 157.27 302.751 157.182C302.762 157.094 302.754 157.005 302.727 156.92C302.701 156.835 302.657 156.757 302.599 156.691C302.54 156.624 302.468 156.571 302.387 156.534C302.306 156.498 302.218 156.479 302.13 156.479C302.041 156.478 301.953 156.497 301.872 156.534L282.507 162.172L283.079 160.8L304.249 153.52C304.328 153.498 304.402 153.46 304.466 153.408C304.53 153.357 304.583 153.293 304.621 153.22C304.66 153.147 304.683 153.067 304.689 152.985C304.696 152.903 304.685 152.82 304.659 152.742C304.637 152.665 304.599 152.592 304.548 152.529C304.497 152.466 304.434 152.415 304.362 152.377C304.29 152.34 304.211 152.317 304.13 152.311C304.05 152.306 303.969 152.316 303.892 152.343L284.019 158.51L284.505 157.344C284.505 157.344 304.421 149.653 306.776 149.2C311.021 148.368 308.461 161.556 302.488 163.824Z" fill="#455A64"/>
<path d="M306.874 152.915C309.639 151.651 320.99 146.65 322.33 146.132C323.885 145.527 378.893 124.131 381.086 124.066C383.278 124.001 382.285 131.529 381.021 133.117C379.757 134.705 327.644 149.059 322.394 151.133C316.897 153.293 306.561 157.613 306.561 157.613L306.874 152.915Z" fill="#455A64"/>
<path d="M392.297 161.836C386.324 157.516 373.492 148.648 360.467 145.019C346.004 140.991 317.058 137.135 314.196 147.838C312.09 155.69 323.02 158.142 323.02 158.142C323.02 158.142 310.718 159.06 310.373 166.567C310.059 173.415 318.614 174.797 318.614 174.797C318.614 174.797 311.248 176.644 312.22 183.297C313.386 191.29 328.626 186.105 336.802 193.191C338.638 194.778 392.297 161.836 392.297 161.836Z" fill="#FFCCB3"/>
<path d="M358.76 161.015C352.485 157.894 336.381 154.47 323.236 157.894C322.934 157.969 322.837 158.239 323.117 158.229C335.072 157.741 347.041 158.713 358.76 161.123C358.803 161.134 358.836 161.048 358.76 161.015Z" fill="#263238"/>
<path d="M354.278 175.499C348.575 173.339 331.823 170.574 318.635 174.527C318.333 174.614 318.257 174.884 318.538 174.862C330.435 173.766 342.418 174.024 354.256 175.629C354.321 175.65 354.343 175.521 354.278 175.499Z" fill="#263238"/>
<path d="M273.855 264.401L328.723 235.12C328.723 235.12 274.341 201.984 249.251 192.457C223.102 182.488 213.209 189.822 236.754 218.444C259.944 246.591 273.855 264.401 273.855 264.401Z" fill="#5DBD6D"/>
<path d="M324.22 232.42C323.17 232.699 322.145 233.06 321.152 233.5C319.678 234.137 318.301 234.977 317.059 235.995C318.645 235.759 320.19 235.301 321.649 234.634C322.791 234.143 323.877 233.531 324.889 232.809C324.662 232.701 324.403 232.56 324.22 232.42ZM266.414 240.596C264.939 241.225 263.564 242.066 262.331 243.091C263.914 242.851 265.456 242.389 266.911 241.719C268.388 241.094 269.767 240.257 271.004 239.235C269.416 239.461 267.869 239.92 266.414 240.596V240.596ZM292.4 245.521C291.771 244.049 290.935 242.674 289.916 241.439C290.149 243.026 290.607 244.571 291.277 246.029C291.903 247.5 292.739 248.872 293.761 250.101C293.532 248.516 293.074 246.974 292.4 245.521V245.521ZM245.557 221.889C244.92 220.422 244.08 219.051 243.062 217.817C243.3 219.401 243.762 220.943 244.434 222.397C245.057 223.873 245.894 225.248 246.918 226.479C246.686 224.892 246.227 223.347 245.557 221.889V221.889ZM232.596 199.38C231.108 198.799 229.544 198.435 227.952 198.3C229.238 199.255 230.652 200.022 232.154 200.579C233.644 201.155 235.207 201.518 236.798 201.659C235.513 200.704 234.098 199.937 232.596 199.38V199.38ZM270.324 215.582C268.834 214.982 267.267 214.6 265.668 214.447C266.956 215.408 268.375 216.179 269.881 216.737C271.371 217.313 272.934 217.676 274.525 217.817C273.265 216.863 271.876 216.092 270.399 215.528L270.324 215.582ZM256.985 195.697C256.412 197.132 256.048 198.641 255.905 200.18C256.814 198.967 257.542 197.628 258.065 196.205L256.985 195.697ZM294.377 224.039C293.802 225.529 293.438 227.092 293.297 228.683C295.182 226.081 296.354 223.031 296.699 219.837C295.732 221.11 294.95 222.514 294.377 224.006V224.039Z" fill="white"/>
<path d="M272.559 252.941C273.779 252.099 275.14 251.418 276.426 250.684C277.711 249.949 279.083 249.183 280.411 248.427C283.111 246.904 285.811 245.424 288.555 243.955C293.955 241.028 299.431 238.069 304.929 235.239C306.441 234.45 307.953 233.683 309.487 232.938C311.02 232.193 312.727 231.491 314.369 230.713C314.387 230.712 314.405 230.716 314.421 230.725C314.437 230.734 314.449 230.748 314.456 230.765C314.463 230.782 314.465 230.801 314.461 230.819C314.457 230.836 314.447 230.852 314.434 230.864C313.116 231.631 311.841 232.517 310.524 233.284C309.206 234.051 307.791 234.861 306.419 235.617C303.712 237.107 300.987 238.573 298.243 240.013C292.843 242.864 287.442 245.737 282.042 248.47L277.419 250.781C275.832 251.58 274.255 252.477 272.591 253.125C272.559 253.157 272.429 253.038 272.559 252.941Z" fill="#263238"/>
<path d="M236.755 218.379C259.944 246.58 273.855 264.379 273.855 264.379L291.385 255.026L225.5 189.768C220.953 193.256 223.75 202.577 236.755 218.379Z" fill="#263238"/>
<path d="M286.352 372.009L140.93 381.19C140.93 381.19 154.399 241.06 205 190.199C211.254 183.924 226.278 184.313 236.323 188.547C239.919 190.048 253.518 206.746 258.119 223.109C262.72 239.473 286.708 371.491 286.352 372.009Z" fill="#5DBD6D"/>
<path d="M190.732 231.339C189.257 231.97 187.879 232.807 186.639 233.824C188.23 233.585 189.777 233.112 191.229 232.419C192.707 231.794 194.086 230.958 195.323 229.935C193.734 230.184 192.188 230.656 190.732 231.339V231.339ZM262.503 243.004C262.441 243.045 262.383 243.092 262.331 243.145C262.392 243.151 262.453 243.151 262.514 243.145C262.514 243.145 262.503 242.983 262.503 242.95V243.004ZM226.116 267.22C224.64 267.849 223.262 268.685 222.022 269.704C223.608 269.468 225.154 269.009 226.612 268.343C228.085 267.714 229.46 266.878 230.695 265.859C229.11 266.085 227.567 266.543 226.116 267.22V267.22ZM210.13 328.719C208.658 329.352 207.283 330.193 206.048 331.214C207.636 330.987 209.182 330.528 210.638 329.853C212.109 329.218 213.484 328.378 214.721 327.358C213.134 327.591 211.588 328.049 210.13 328.719V328.719ZM174.207 288.756C172.738 289.392 171.364 290.228 170.124 291.241C171.713 291.013 173.259 290.554 174.715 289.88C176.186 289.248 177.56 288.411 178.797 287.395C177.208 287.645 175.662 288.122 174.207 288.81V288.756ZM149.657 374.439C148.183 375.066 146.808 375.902 145.574 376.923C147.162 376.695 148.709 376.237 150.165 375.562C151.637 374.929 153.012 374.089 154.247 373.067C152.655 373.314 151.109 373.795 149.657 374.493V374.439ZM213.554 365.139C212.081 365.767 210.706 366.604 209.472 367.624C211.059 367.391 212.604 366.933 214.062 366.263C215.532 365.625 216.907 364.786 218.145 363.768C216.552 364.011 215.005 364.492 213.554 365.193V365.139ZM285.52 366.587C284.498 366.864 283.501 367.225 282.539 367.667C281.071 368.304 279.697 369.14 278.456 370.151C280.044 369.922 281.59 369.463 283.047 368.79C283.95 368.388 284.823 367.922 285.66 367.397C285.596 367.116 285.52 366.846 285.52 366.587ZM252.675 324.388C251.199 325.021 249.82 325.861 248.581 326.883C250.149 326.643 251.676 326.185 253.118 325.522C254.595 324.892 255.974 324.051 257.211 323.027C255.634 323.26 254.099 323.718 252.653 324.388H252.675ZM204.298 207.891C203.667 206.417 202.827 205.042 201.803 203.808C202.039 205.391 202.497 206.933 203.164 208.388C203.795 209.865 204.635 211.244 205.659 212.481C205.429 210.893 204.971 209.347 204.298 207.891ZM182.556 372.657C181.929 371.18 181.093 369.801 180.072 368.563C180.301 370.151 180.76 371.697 181.433 373.154C182.062 374.629 182.899 376.008 183.917 377.247C183.698 375.657 183.239 374.11 182.556 372.657V372.657ZM173.624 332.532C172.987 331.062 172.143 329.691 171.118 328.46C171.356 330.043 171.814 331.584 172.479 333.04C173.111 334.515 173.955 335.891 174.985 337.122C174.746 335.536 174.288 333.991 173.624 332.532V332.532ZM227.433 304.968C226.798 303.496 225.962 302.118 224.949 300.875C225.174 302.464 225.632 304.011 226.31 305.465C226.935 306.943 227.772 308.322 228.794 309.559C228.558 307.972 228.1 306.427 227.433 304.968ZM204.579 254.205C203.946 252.729 203.106 251.35 202.084 250.111C202.308 251.7 202.767 253.247 203.445 254.701C204.075 256.179 204.916 257.557 205.94 258.795C205.705 257.226 205.247 255.698 204.579 254.259V254.205ZM238.85 371.026C239.043 372.356 239.406 373.655 239.93 374.893L241.226 374.806C240.598 373.466 239.8 372.214 238.85 371.08V371.026ZM278.165 338.267C277.53 336.793 276.686 335.418 275.659 334.184C275.903 335.765 276.361 337.306 277.02 338.764C277.654 340.236 278.494 341.61 279.515 342.847C279.286 341.264 278.831 339.721 278.165 338.267V338.267ZM245.557 221.889C244.92 220.422 244.08 219.051 243.062 217.817C243.3 219.401 243.762 220.943 244.434 222.396C245.056 223.872 245.894 225.248 246.918 226.479C246.685 224.892 246.227 223.346 245.557 221.889V221.889ZM232.596 199.38C231.108 198.798 229.544 198.435 227.952 198.3C229.237 199.255 230.652 200.022 232.153 200.579C233.643 201.154 235.207 201.518 236.798 201.659C235.512 200.704 234.097 199.937 232.596 199.38V199.38ZM191.877 311.319C190.394 310.714 188.829 310.331 187.233 310.185C188.522 311.143 189.94 311.914 191.445 312.475C192.936 313.046 194.499 313.41 196.089 313.555C194.816 312.611 193.411 311.858 191.92 311.319H191.877ZM156.667 351.584C155.177 350.986 153.609 350.604 152.011 350.45C154.616 352.338 157.67 353.511 160.868 353.853C159.595 352.905 158.196 352.141 156.71 351.584H156.667ZM255.591 354.825C254.101 354.226 252.534 353.844 250.936 353.691C253.541 355.578 256.594 356.751 259.792 357.093C258.519 356.147 257.119 355.384 255.634 354.825H255.591ZM248.668 294.924C247.181 294.338 245.616 293.974 244.023 293.844C245.306 294.802 246.722 295.57 248.225 296.122C249.713 296.712 251.276 297.094 252.869 297.257C251.605 296.279 250.204 295.493 248.711 294.924H248.668ZM235.448 244.549C233.961 243.962 232.396 243.598 230.803 243.469C232.086 244.424 233.502 245.188 235.005 245.737C236.49 246.335 238.055 246.717 239.649 246.871C238.385 245.896 236.984 245.114 235.491 244.549H235.448ZM176.432 262.456C175.847 263.943 175.483 265.508 175.352 267.101C177.223 264.487 178.394 261.438 178.754 258.244C177.776 259.526 176.994 260.945 176.432 262.456V262.456ZM230.015 343.149C229.43 344.636 229.066 346.201 228.935 347.793C229.893 346.508 230.664 345.094 231.224 343.592C231.795 342.1 232.158 340.538 232.304 338.948C231.348 340.23 230.583 341.645 230.036 343.149H230.015ZM254.921 267.36C254.336 268.854 253.972 270.426 253.841 272.026C255.726 269.416 256.899 266.36 257.243 263.158C256.28 264.442 255.505 265.857 254.943 267.36H254.921ZM193.756 349.759C193.171 351.25 192.807 352.818 192.676 354.414C193.629 353.119 194.396 351.698 194.955 350.191C195.532 348.702 195.896 347.138 196.035 345.547C195.084 346.835 194.324 348.254 193.778 349.759H193.756ZM153.34 311.665C152.763 313.158 152.4 314.725 152.26 316.32C153.221 315.034 153.988 313.615 154.539 312.108C155.126 310.621 155.49 309.056 155.619 307.463C154.678 308.754 153.918 310.168 153.362 311.665H153.34ZM203.434 285.808C202.844 287.297 202.48 288.866 202.354 290.463C204.237 287.856 205.409 284.804 205.756 281.606C204.78 282.885 203.998 284.301 203.434 285.808V285.808ZM218.641 225.518C218.072 227.013 217.709 228.579 217.561 230.173C218.521 228.889 219.292 227.474 219.851 225.971C220.427 224.478 220.79 222.911 220.931 221.316C219.979 222.603 219.212 224.018 218.652 225.518H218.641Z" fill="white"/>
<path d="M207.106 194.239C210.651 202.343 216.273 209.366 223.405 214.598C226.886 217.281 230.96 219.088 235.285 219.869C237.56 220.318 239.917 220.081 242.057 219.189C244.044 218.111 245.721 216.542 246.929 214.631C248.332 212.517 249.403 210.2 250.104 207.762C250.927 205.034 251.551 202.251 251.973 199.434C251.968 199.421 251.966 199.407 251.968 199.393C251.97 199.379 251.975 199.366 251.983 199.355C251.991 199.343 252.001 199.334 252.014 199.328C252.026 199.321 252.04 199.318 252.054 199.318C252.068 199.318 252.081 199.321 252.094 199.328C252.106 199.334 252.117 199.343 252.125 199.355C252.133 199.366 252.138 199.379 252.139 199.393C252.141 199.407 252.139 199.421 252.135 199.434C251.746 202.102 251.573 204.835 250.979 207.427C250.49 209.769 249.691 212.036 248.603 214.166C247.558 216.214 246.085 218.011 244.282 219.437C242.342 220.863 239.97 221.58 237.564 221.468C232.875 221.249 228.344 219.706 224.495 217.018C220.667 214.496 217.256 211.391 214.386 207.816C211.129 203.762 208.573 199.191 206.825 194.293C206.818 194.256 206.826 194.217 206.847 194.186C206.869 194.154 206.901 194.133 206.939 194.126C206.976 194.118 207.015 194.126 207.046 194.148C207.077 194.169 207.099 194.202 207.106 194.239V194.239Z" fill="#263238"/>
<path d="M238.861 214.998C230.35 216.424 216.795 202.664 211.794 191.906C211.459 191.171 213.036 183.73 214.537 174.625C215.423 169.084 216.287 162.895 216.698 157.192C216.773 156.015 251.908 168.231 251.908 168.231C251.908 168.231 247.588 179.96 247.005 189.908C246.97 190.694 247.003 191.482 247.102 192.262C247.108 192.392 247.108 192.522 247.102 192.651C247.512 197.134 247.091 213.605 238.861 214.998Z" fill="#FFCCB3"/>
<path d="M243.397 192.597C244.623 192.703 245.855 192.703 247.081 192.597C247.081 192.445 247.081 192.316 247.081 192.208C246.975 191.428 246.946 190.639 246.994 189.853C247.588 179.906 251.876 168.187 251.876 168.187C251.876 168.187 223.362 158.261 217.659 157.159C218.318 163.856 222.336 190.739 243.397 192.597Z" fill="#263238"/>
<path d="M211.6 118.158C207.862 130.892 215.002 167.615 224.139 175.64C237.381 187.359 258.853 188.244 268.757 172.399C278.359 157.019 268.206 109.431 258.021 102.108C243.03 91.2856 217.108 99.3105 211.6 118.158Z" fill="#FFCCB3"/>
<path d="M246.486 140.44C246.486 140.343 246.324 140.591 246.346 140.689C246.886 143.151 247.102 146.089 245.028 147.299C244.963 147.299 245.028 147.461 245.028 147.428C247.717 146.532 247.404 142.676 246.486 140.44Z" fill="#263238"/>
<path d="M243.796 138.281C239.768 138.734 240.967 146.759 244.704 146.338C248.441 145.917 247.177 137.903 243.796 138.281Z" fill="#263238"/>
<path d="M261.693 137.826C261.693 137.729 261.909 137.913 261.92 138.01C262.212 140.516 263 143.324 265.344 143.81C265.42 143.81 265.43 143.95 265.344 143.95C262.536 143.983 261.574 140.235 261.693 137.826Z" fill="#263238"/>
<path d="M263.53 134.889C267.483 133.992 268.995 141.963 265.333 142.806C261.672 143.648 260.214 135.645 263.53 134.889Z" fill="#263238"/>
<path d="M240.081 135.084C241.086 134.611 242.067 134.088 243.019 133.517C244.132 133.113 245.08 132.354 245.719 131.357C245.859 131.004 245.878 130.616 245.775 130.251C245.671 129.886 245.451 129.565 245.147 129.338C243.775 128.452 242.22 128.862 240.827 129.543C239.403 130.189 238.274 131.345 237.662 132.783C237.548 133.116 237.532 133.474 237.615 133.815C237.699 134.157 237.879 134.467 238.133 134.71C238.388 134.952 238.707 135.116 239.053 135.182C239.398 135.249 239.755 135.214 240.081 135.084V135.084Z" fill="#263238"/>
<path d="M266.079 130.385C264.968 130.329 263.861 130.213 262.763 130.039C261.581 130.076 260.42 129.723 259.458 129.035C259.195 128.761 259.031 128.407 258.992 128.03C258.953 127.652 259.041 127.272 259.242 126.95C260.181 125.622 261.78 125.417 263.314 125.525C264.867 125.598 266.339 126.24 267.45 127.328C267.686 127.593 267.839 127.92 267.893 128.27C267.947 128.62 267.899 128.978 267.754 129.301C267.609 129.624 267.373 129.898 267.076 130.09C266.779 130.283 266.433 130.385 266.079 130.385Z" fill="#263238"/>
<path d="M247.717 163.025C248.398 163.511 249.121 164.224 250.029 164.17C250.951 164.013 251.831 163.663 252.61 163.144C252.625 163.132 252.645 163.126 252.664 163.126C252.684 163.126 252.703 163.133 252.718 163.146C252.733 163.159 252.744 163.176 252.747 163.195C252.751 163.215 252.749 163.235 252.74 163.252C252.458 163.796 252.034 164.253 251.512 164.574C250.991 164.896 250.392 165.07 249.78 165.077C249.253 165.021 248.755 164.809 248.349 164.469C247.944 164.128 247.648 163.675 247.501 163.166C247.426 163.036 247.609 162.95 247.717 163.025Z" fill="#263238"/>
<path d="M249.208 155.183C249.986 156.075 250.941 156.796 252.012 157.299C253.082 157.803 254.246 158.079 255.429 158.11C256.462 158.147 257.494 158.038 258.497 157.786C258.688 157.754 258.876 157.703 259.058 157.635C259.242 157.635 259.404 157.538 259.598 157.473C259.727 157.426 259.837 157.339 259.911 157.224C259.985 157.109 260.019 156.972 260.009 156.836V156.836C259.999 156.751 259.977 156.667 259.944 156.587V156.371C259.706 154.449 259.08 151.565 259.08 151.565C259.836 151.803 263.638 152.883 263.4 151.889C261.672 143.681 259.75 134.608 256.282 126.756C256.265 126.697 256.225 126.648 256.172 126.618C256.118 126.589 256.055 126.582 255.996 126.599C255.938 126.616 255.888 126.656 255.859 126.71C255.829 126.763 255.822 126.827 255.84 126.885C257.19 134.835 259.933 142.503 261.424 150.463C260.065 150.067 258.659 149.859 257.244 149.848C256.985 149.967 258.551 155.399 258.583 156.274C258.59 156.306 258.59 156.339 258.583 156.371C255.429 157.257 252.859 156.652 249.413 154.957C249.197 154.816 249.035 155.011 249.208 155.183Z" fill="#263238"/>
<path d="M257.222 156.987C256.372 158.513 255.145 159.796 253.658 160.713C252.833 161.183 251.881 161.384 250.936 161.285C248.873 161.069 248.56 159.255 248.689 157.635C248.763 156.777 248.94 155.932 249.219 155.118C251.618 156.58 254.423 157.235 257.222 156.987V156.987Z" fill="#263238"/>
<path d="M253.658 160.714C252.833 161.184 251.881 161.385 250.936 161.286C248.873 161.07 248.56 159.256 248.689 157.636C250.85 157.539 253.172 158.662 253.658 160.714Z" fill="#FF97B8"/>
<path d="M253.118 110.738C252.079 112.83 250.525 114.621 248.601 115.944C246.677 117.267 244.447 118.078 242.123 118.299C237.511 118.688 232.348 116.722 229.68 112.823C229.604 112.704 229.421 112.823 229.496 112.942C232.348 117.111 237.057 119.962 242.198 119.422C244.647 119.113 246.971 118.168 248.94 116.68C250.909 115.192 252.454 113.214 253.42 110.944C253.485 110.684 253.204 110.544 253.118 110.738Z" fill="#263238"/>
<path d="M233.298 85.2592C227.412 85.0432 221.947 89.1151 219.722 94.4291C218.457 97.6125 218.026 101.066 218.469 104.463C218.469 104.492 218.48 104.519 218.501 104.539C218.521 104.56 218.548 104.571 218.577 104.571C218.606 104.571 218.633 104.56 218.653 104.539C218.674 104.519 218.685 104.492 218.685 104.463C218.426 99.0626 220.478 92.9709 224.798 89.4715C226.737 87.782 229.154 86.7388 231.713 86.4872C234.272 86.2355 236.846 86.7879 239.077 88.0674C241.55 89.5052 243.456 91.7465 244.477 94.4183C244.505 94.4714 244.55 94.5128 244.606 94.535C244.662 94.5571 244.723 94.5585 244.78 94.5388C244.836 94.5191 244.884 94.4796 244.913 94.4277C244.943 94.3758 244.953 94.3149 244.942 94.2562C244.165 91.7394 242.629 89.524 240.545 87.9135C238.461 86.3029 235.93 85.3759 233.298 85.2592V85.2592Z" fill="#263238"/>
<path d="M277.959 88.4562C275.872 85.1651 272.69 82.717 268.973 81.5437C263.821 79.902 258.874 81.5437 253.993 83.3259C253.863 83.3259 253.939 83.5743 254.068 83.5311C258.226 82.0514 262.525 80.7877 266.953 81.8137C270.597 82.6555 273.836 84.7314 276.123 87.6894C278.391 90.7494 279.479 94.5246 279.187 98.322C278.895 102.119 277.244 105.684 274.536 108.362C272.935 109.861 271.045 111.018 268.982 111.761C266.918 112.504 264.725 112.817 262.536 112.682C262.363 112.682 262.298 112.931 262.482 112.942C265.473 113.239 268.488 112.698 271.19 111.38C273.891 110.061 276.172 108.017 277.779 105.476C279.385 102.935 280.252 99.9978 280.284 96.992C280.316 93.9861 279.511 91.0307 277.959 88.4562Z" fill="#263238"/>
<path d="M210.854 121.431C210.854 121.431 208.996 110.544 211.027 106.612C213.057 102.681 219.03 100.499 219.03 100.499C219.03 100.499 220.531 90.5622 229.064 87.9592C236.722 85.6262 243.58 91.275 243.58 91.275C243.58 91.275 251.875 78.0765 265.603 81.3167C278.629 84.3733 281.264 102.529 271.263 110.835C264.242 116.668 251.681 112.261 251.681 112.261C250.676 112.661 241.582 121.69 231.159 114.151C231.159 114.151 225.197 121.539 220.067 118.471C220.099 118.515 215.109 122.478 210.854 121.431Z" fill="#263238"/>
<path opacity="0.2" d="M216.816 108.546C217.691 114.13 220.057 130.061 218.814 133.96C217.572 137.859 214.894 147.915 213.112 148.995C210.595 137.114 209.709 124.596 211.6 118.159C212.644 114.623 214.421 111.348 216.816 108.546V108.546Z" fill="#263238"/>
<path d="M218.123 147.633C218.123 147.633 209.482 136.033 204.158 139.154C198.833 142.276 205.648 159.298 212.053 161.447C212.854 161.781 213.714 161.95 214.581 161.942C215.449 161.934 216.306 161.751 217.1 161.403C217.895 161.054 218.611 160.548 219.204 159.916C219.798 159.283 220.257 158.536 220.553 157.721L218.123 147.633Z" fill="#FFCCB3"/>
<path d="M206.22 143.983C206.197 143.983 206.175 143.993 206.159 144.009C206.143 144.025 206.134 144.047 206.134 144.07C206.134 144.093 206.143 144.115 206.159 144.131C206.175 144.147 206.197 144.156 206.22 144.156C210.703 145.809 213.176 149.848 214.936 154.061C213.576 152.462 211.75 151.62 209.601 153.261C209.482 153.348 209.601 153.52 209.73 153.488C210.502 153.216 211.338 153.19 212.125 153.412C212.912 153.635 213.611 154.095 214.126 154.73C214.966 155.803 215.69 156.962 216.287 158.186C216.503 158.575 217.215 158.348 217.053 157.895C217.052 157.859 217.052 157.823 217.053 157.787C216.956 152.138 212.312 144.361 206.22 143.983Z" fill="#263238"/>
<path d="M309.627 274.77C303.87 275.85 305.404 268.235 300.068 267.738C294.733 267.242 293.134 273.139 289.851 272.296C286.567 271.454 288.922 265.567 282.388 265.513C275.853 265.459 274.363 274.456 270.409 276.53C266.456 278.604 257.956 275.083 256.941 282.287C255.926 289.491 270.517 291.889 280.994 296.933C291.471 301.977 302.801 309.645 312.252 309.105C322.383 308.468 326.79 301.869 334.545 300.821C342.299 299.773 360.121 304.569 367.714 297.775C375.307 290.982 387.566 285.506 387.749 278.14C387.933 270.773 378.255 274.014 375.155 273.657C372.056 273.301 372.347 265.168 366.385 264.034C360.423 262.9 358.954 266.593 353.77 266.961C348.586 267.328 346.361 257.24 339.092 259.055C331.823 260.869 333.691 264.973 330.548 266.766C327.405 268.559 321.292 264.487 317.047 266.356C312.803 268.224 314.757 273.852 309.627 274.77Z" fill="#455A64"/>
<path d="M333.119 279.598C339.124 279.889 336.597 272.566 341.976 271.389C347.355 270.212 349.731 275.871 352.982 274.629C356.233 273.387 353.068 267.846 359.722 266.95C366.375 266.053 369.043 274.813 373.341 276.357C377.64 277.902 385.859 273.333 387.825 280.354C389.791 287.374 375.188 291.608 365.144 297.948C355.099 304.288 344.525 313.339 334.804 313.955C324.392 314.614 319.046 308.619 311.042 308.555C303.039 308.49 285.423 315.532 276.815 309.753C268.207 303.975 255.019 300.119 253.885 292.839C252.751 285.56 263.044 287.525 266.154 286.78C269.265 286.035 267.947 277.999 273.877 276.12C279.807 274.24 281.783 277.708 287.119 277.416C292.454 277.124 293.437 266.853 301.084 267.695C308.731 268.538 307.327 272.88 310.805 274.251C314.283 275.623 319.964 270.817 324.522 272.091C329.08 273.366 327.773 279.338 333.119 279.598Z" fill="#37474F"/>
<path d="M267.256 279.241C262.158 282.676 259.371 290.787 263.476 298.499C267.58 306.211 277.97 305.228 282.917 301.847C287.864 298.466 292.044 290.031 287.82 282.838C284.202 276.595 276.188 273.225 267.256 279.241Z" fill="#5DBD6D"/>
<path opacity="0.1" d="M267.256 279.241C262.158 282.676 259.371 290.787 263.476 298.499C267.58 306.211 277.97 305.228 282.917 301.847C287.864 298.466 292.044 290.031 287.82 282.838C284.202 276.595 276.188 273.225 267.256 279.241Z" fill="black"/>
<path d="M268.768 281.261C264.61 284.059 262.288 290.69 265.69 296.987C269.092 303.284 277.571 302.485 281.589 299.72C285.607 296.955 289.052 290.075 285.607 284.188C282.626 279.09 276.08 276.347 268.768 281.261Z" fill="#5DBD6D"/>
<path d="M277.473 284.76C277.84 285.051 279.158 283.95 278.434 283.431C277.711 282.913 276.998 284.393 277.473 284.76Z" fill="white"/>
<path d="M280.552 291.986C280.368 292.407 281.761 293.411 282.085 292.58C282.409 291.748 280.8 291.424 280.552 291.986Z" fill="white"/>
<path d="M283.641 289.178C283.717 289.631 285.434 289.707 285.25 288.832C285.067 287.957 283.544 288.584 283.641 289.178Z" fill="white"/>
<path d="M277.387 281.596C277.841 281.521 277.927 279.814 277.052 279.987C276.177 280.16 276.782 281.693 277.387 281.596Z" fill="white"/>
<path d="M269.168 287.579C269.287 287.136 267.753 286.359 267.558 287.234C267.364 288.108 269.006 288.173 269.168 287.579Z" fill="white"/>
<path d="M272.84 297.127C272.462 296.857 271.198 298.013 271.943 298.499C272.689 298.985 273.337 297.484 272.84 297.127Z" fill="white"/>
<path d="M275.853 296.544C275.4 296.468 274.773 298.067 275.659 298.175C276.545 298.283 276.458 296.641 275.853 296.544Z" fill="white"/>
<path d="M272.689 289.783C273.013 289.459 272.062 288.023 271.468 288.703C270.874 289.384 272.257 290.215 272.689 289.783Z" fill="white"/>
<path d="M263.443 290.971C263.443 290.971 271.814 290.042 272.916 291.738C274.017 293.433 268.066 300.886 267.083 300.227C266.1 299.568 262.536 293.8 263.443 290.971Z" fill="#5DBD6D"/>
<path opacity="0.1" d="M263.443 290.971C263.443 290.971 271.814 290.042 272.916 291.738C274.017 293.433 268.066 300.886 267.083 300.227C266.1 299.568 262.536 293.8 263.443 290.971Z" fill="black"/>
<path d="M277.754 302.074C277.754 302.074 275.281 294.016 276.75 292.623C278.219 291.23 286.632 295.68 286.179 296.77C285.725 297.861 280.703 302.43 277.754 302.074Z" fill="#5DBD6D"/>
<path opacity="0.1" d="M277.754 302.074C277.754 302.074 275.281 294.016 276.75 292.623C278.219 291.23 286.632 295.68 286.179 296.77C285.725 297.861 280.703 302.43 277.754 302.074Z" fill="black"/>
<path d="M288.414 287.233C288.414 287.233 280.227 289.22 278.92 287.676C277.613 286.131 282.56 277.955 283.619 278.517C284.677 279.079 288.943 284.263 288.414 287.233Z" fill="#5DBD6D"/>
<path opacity="0.1" d="M288.414 287.233C288.414 287.233 280.227 289.22 278.92 287.676C277.613 286.131 282.56 277.955 283.619 278.517C284.677 279.079 288.943 284.263 288.414 287.233Z" fill="black"/>
<path d="M274.536 277.438C274.536 277.438 276.534 285.625 274.989 286.931C273.445 288.238 265.269 283.292 265.82 282.233C266.37 281.175 271.62 276.898 274.536 277.438Z" fill="#5DBD6D"/>
<path opacity="0.1" d="M274.536 277.438C274.536 277.438 276.534 285.625 274.989 286.931C273.445 288.238 265.269 283.292 265.82 282.233C266.37 281.175 271.62 276.898 274.536 277.438Z" fill="black"/>
<path d="M311.204 260.221C305.199 258.903 297.412 262.489 294.668 270.784C291.925 279.079 299.81 285.905 305.696 287.18C311.582 288.454 320.536 285.625 322.837 277.6C324.824 270.655 321.724 262.532 311.204 260.221Z" fill="#5DBD6D"/>
<path opacity="0.1" d="M311.204 260.221C305.199 258.903 297.412 262.489 294.668 270.784C291.925 279.079 299.81 285.905 305.696 287.18C311.582 288.454 320.536 285.625 322.837 277.6C324.824 270.655 321.724 262.532 311.204 260.221Z" fill="black"/>
<path d="M310.794 262.662C305.901 261.581 299.539 264.519 297.293 271.302C295.046 278.085 301.494 283.669 306.301 284.695C311.107 285.721 318.43 283.431 320.342 276.875C321.929 271.227 319.391 264.595 310.794 262.662Z" fill="#5DBD6D"/>
<path d="M314.272 271.421C314.272 271.885 316.022 272.08 315.903 271.194C315.784 270.308 314.207 270.816 314.272 271.421Z" fill="white"/>
<path d="M311.183 278.636C310.74 278.798 310.978 280.493 311.799 280.159C312.619 279.824 311.745 278.431 311.183 278.636Z" fill="white"/>
<path d="M315.341 278.928C315.06 279.306 316.184 280.591 316.691 279.856C317.199 279.122 315.698 278.441 315.341 278.928Z" fill="white"/>
<path d="M316.496 269.142C316.864 269.434 318.17 268.311 317.436 267.803C316.702 267.295 316.01 268.797 316.496 269.142Z" fill="white"/>
<path d="M306.495 267.36C306.906 267.134 306.398 265.492 305.642 265.956C304.886 266.421 305.966 267.652 306.495 267.36Z" fill="white"/>
<path d="M302.131 276.616C302.067 276.152 300.349 276.033 300.511 276.908C300.673 277.783 302.207 277.21 302.131 276.616Z" fill="white"/>
<path d="M304.627 278.388C304.368 277.999 302.78 278.658 303.309 279.371C303.839 280.084 304.962 278.863 304.627 278.388Z" fill="white"/>
<path d="M307.327 271.432C307.792 271.432 308.17 269.758 307.327 269.78C306.485 269.801 306.722 271.421 307.327 271.432Z" fill="white"/>
<path d="M300.09 265.557C300.09 265.557 306.571 270.957 306.085 272.944C305.599 274.932 296.116 275.753 295.91 274.586C295.705 273.42 297.401 266.863 300.09 265.557Z" fill="#5DBD6D"/>
<path opacity="0.1" d="M300.09 265.557C300.09 265.557 306.571 270.957 306.085 272.944C305.599 274.932 296.116 275.753 295.91 274.586C295.705 273.42 297.401 266.863 300.09 265.557Z" fill="black"/>
<path d="M301.948 283.582C301.948 283.582 306.063 276.227 308.083 276.324C310.103 276.421 312.695 285.591 311.593 286.045C310.492 286.499 303.72 285.969 301.948 283.582Z" fill="#5DBD6D"/>
<path opacity="0.1" d="M301.948 283.582C301.948 283.582 306.063 276.227 308.083 276.324C310.103 276.421 312.695 285.591 311.593 286.045C310.492 286.499 303.72 285.969 301.948 283.582Z" fill="black"/>
<path d="M320.083 281.024C320.083 281.024 312.987 276.466 313.203 274.457C313.419 272.448 322.729 270.407 323.074 271.53C323.42 272.653 322.524 279.414 320.083 281.024Z" fill="#5DBD6D"/>
<path opacity="0.1" d="M320.083 281.024C320.083 281.024 312.987 276.466 313.203 274.457C313.419 272.448 322.729 270.407 323.074 271.53C323.42 272.653 322.524 279.414 320.083 281.024Z" fill="black"/>
<path d="M317.545 264.239C317.545 264.239 312.998 271.335 310.989 271.119C308.98 270.903 306.938 261.603 308.062 261.247C309.185 260.89 315.914 261.754 317.545 264.239Z" fill="#5DBD6D"/>
<path opacity="0.1" d="M317.545 264.239C317.545 264.239 312.998 271.335 310.989 271.119C308.98 270.903 306.938 261.603 308.062 261.247C309.185 260.89 315.914 261.754 317.545 264.239Z" fill="black"/>
<path d="M328.14 299.773C332.665 303.932 341.198 304.742 347.743 298.953C354.289 293.163 350.897 283.281 346.447 279.241C341.997 275.202 332.827 273.128 326.811 278.906C321.605 283.918 320.201 292.494 328.14 299.773Z" fill="#5DBD6D"/>
<path opacity="0.1" d="M328.14 299.773C332.665 303.932 341.198 304.742 347.743 298.953C354.289 293.163 350.897 283.281 346.447 279.241C341.997 275.202 332.827 273.128 326.811 278.906C321.605 283.918 320.201 292.494 328.14 299.773Z" fill="black"/>
<path d="M329.739 297.829C333.433 301.221 340.41 301.88 345.756 297.16C351.103 292.44 348.338 284.361 344.676 281.045C341.015 277.729 333.551 276.055 328.637 280.775C324.403 284.869 323.258 291.878 329.739 297.829Z" fill="#5DBD6D"/>
<path d="M331.121 288.584C331.315 288.163 329.933 287.137 329.598 287.958C329.263 288.779 330.883 289.103 331.121 288.584Z" fill="white"/>
<path d="M337.418 283.864C337.872 283.95 338.498 282.362 337.634 282.233C336.77 282.103 336.813 283.756 337.418 283.864Z" fill="white"/>
<path d="M333.962 281.52C334.394 281.347 334.07 279.662 333.26 280.04C332.45 280.418 333.411 281.758 333.962 281.52Z" fill="white"/>
<path d="M328.054 289.383C327.881 288.951 326.196 289.264 326.563 290.074C326.931 290.884 328.292 289.934 328.054 289.383Z" fill="white"/>
<path d="M335.797 295.972C335.333 295.972 334.944 297.624 335.797 297.613C336.651 297.603 336.402 295.982 335.797 295.972Z" fill="white"/>
<path d="M344.223 290.161C344.05 290.593 345.465 291.554 345.767 290.722C346.07 289.891 344.449 289.599 344.223 290.161Z" fill="white"/>
<path d="M342.948 287.374C342.948 287.839 344.687 288.065 344.579 287.18C344.471 286.294 342.904 286.769 342.948 287.374Z" fill="white"/>
<path d="M337.116 292.029C336.716 291.792 335.549 293.056 336.338 293.477C337.126 293.898 337.645 292.343 337.116 292.029Z" fill="white"/>
<path d="M340.431 300.746C340.431 300.746 337.569 292.818 338.962 291.349C340.355 289.88 348.985 293.931 348.586 295.032C348.186 296.134 343.401 300.962 340.431 300.746Z" fill="#5DBD6D"/>
<path opacity="0.1" d="M340.431 300.746C340.431 300.746 337.569 292.818 338.962 291.349C340.355 289.88 348.985 293.931 348.586 295.032C348.186 296.134 343.401 300.962 340.431 300.746Z" fill="black"/>
<path d="M347.883 284.263C347.883 284.263 340.625 288.584 338.93 287.45C337.234 286.315 339.589 277.124 340.755 277.318C341.921 277.513 347.538 281.272 347.883 284.263Z" fill="#5DBD6D"/>
<path opacity="0.1" d="M347.883 284.263C347.883 284.263 340.625 288.584 338.93 287.45C337.234 286.315 339.589 277.124 340.755 277.318C341.921 277.513 347.538 281.272 347.883 284.263Z" fill="black"/>
<path d="M330.959 277.34C330.959 277.34 334.804 284.836 333.616 286.467C332.428 288.097 323.345 285.181 323.604 284.036C323.863 282.891 328 277.502 330.959 277.34Z" fill="#5DBD6D"/>
<path opacity="0.1" d="M330.959 277.34C330.959 277.34 334.804 284.836 333.616 286.467C332.428 288.097 323.345 285.181 323.604 284.036C323.863 282.891 328 277.502 330.959 277.34Z" fill="black"/>
<path d="M324.673 293.109C324.673 293.109 332.18 289.264 333.811 290.463C335.442 291.662 332.526 300.735 331.37 300.475C330.214 300.216 324.835 296.079 324.673 293.109Z" fill="#5DBD6D"/>
<path opacity="0.1" d="M324.673 293.109C324.673 293.109 332.18 289.264 333.811 290.463C335.442 291.662 332.526 300.735 331.37 300.475C330.214 300.216 324.835 296.079 324.673 293.109Z" fill="black"/>
<path d="M361.126 286.197C365.652 290.355 374.184 291.154 380.729 285.365C387.275 279.576 383.883 269.704 379.433 265.654C374.983 261.604 365.814 259.541 359.798 265.319C354.646 270.331 353.187 278.863 361.126 286.197Z" fill="#5DBD6D"/>
<path opacity="0.1" d="M361.126 286.197C365.652 290.355 374.184 291.154 380.729 285.365C387.275 279.576 383.883 269.704 379.433 265.654C374.983 261.604 365.814 259.541 359.798 265.319C354.646 270.331 353.187 278.863 361.126 286.197Z" fill="black"/>
<path d="M362.725 284.264C366.418 287.655 373.396 288.314 378.742 283.584C384.088 278.853 381.323 270.785 377.662 267.48C374.001 264.175 366.537 262.479 361.623 267.21C357.389 271.303 356.244 278.291 362.725 284.264Z" fill="#5DBD6D"/>
<path d="M364.106 274.964C364.301 274.543 362.918 273.527 362.583 274.348C362.249 275.169 363.847 275.515 364.106 274.964Z" fill="white"/>
<path d="M370.403 270.287C370.857 270.363 371.483 268.775 370.619 268.656C369.755 268.538 369.766 270.222 370.403 270.287Z" fill="white"/>
<path d="M366.947 267.943C367.38 267.759 367.055 266.075 366.245 266.453C365.435 266.831 366.397 268.181 366.947 267.943Z" fill="white"/>
<path d="M361.039 275.796C360.866 275.364 359.181 275.688 359.548 276.487C359.916 277.286 361.276 276.357 361.039 275.796Z" fill="white"/>
<path d="M368.783 282.385C368.319 282.385 367.93 284.048 368.783 284.026C369.637 284.005 369.388 282.406 368.783 282.385Z" fill="white"/>
<path d="M377.208 276.584C377.035 277.016 378.45 277.978 378.752 277.135C379.055 276.293 377.435 276.023 377.208 276.584Z" fill="white"/>
<path d="M375.933 273.786C375.933 274.251 377.672 274.478 377.564 273.603C377.456 272.728 375.89 273.182 375.933 273.786Z" fill="white"/>
<path d="M370.101 278.453C369.702 278.215 368.535 279.468 369.324 279.9C370.112 280.332 370.631 278.766 370.101 278.453Z" fill="white"/>
<path d="M373.417 287.158C373.417 287.158 370.555 279.23 371.948 277.772C373.341 276.314 381.971 280.343 381.571 281.455C381.172 282.568 376.387 287.374 373.417 287.158Z" fill="#5DBD6D"/>
<path opacity="0.1" d="M373.417 287.158C373.417 287.158 370.555 279.23 371.948 277.772C373.341 276.314 381.971 280.343 381.571 281.455C381.172 282.568 376.387 287.374 373.417 287.158Z" fill="black"/>
<path d="M380.869 270.644C380.869 270.644 373.611 274.964 371.916 273.884C370.22 272.804 372.574 263.558 373.741 263.742C374.907 263.926 380.567 267.695 380.869 270.644Z" fill="#5DBD6D"/>
<path opacity="0.1" d="M380.869 270.644C380.869 270.644 373.611 274.964 371.916 273.884C370.22 272.804 372.574 263.558 373.741 263.742C374.907 263.926 380.567 267.695 380.869 270.644Z" fill="black"/>
<path d="M363.945 263.742C363.945 263.742 367.79 271.238 366.602 272.869C365.414 274.5 356.33 271.594 356.589 270.439C356.849 269.283 360.985 263.915 363.945 263.742Z" fill="#5DBD6D"/>
<path opacity="0.1" d="M363.945 263.742C363.945 263.742 367.79 271.238 366.602 272.869C365.414 274.5 356.33 271.594 356.589 270.439C356.849 269.283 360.985 263.915 363.945 263.742Z" fill="black"/>
<path d="M357.658 279.532C357.658 279.532 365.165 275.687 366.796 276.875C368.427 278.063 365.51 287.147 364.355 286.888C363.199 286.628 357.82 282.503 357.658 279.532Z" fill="#5DBD6D"/>
<path opacity="0.1" d="M357.658 279.532C357.658 279.532 365.165 275.687 366.796 276.875C368.427 278.063 365.51 287.147 364.355 286.888C363.199 286.628 357.82 282.503 357.658 279.532Z" fill="black"/>
<path d="M250.968 293.368L282.593 336.453L365.176 331.247L391.141 284.533L250.968 293.368Z" fill="#EBEBEB"/>
<path d="M184.997 221.425C165.243 273.992 149.085 331.258 161.311 342.685C171.183 351.898 253.172 365.367 271.112 364.146C278.737 363.649 286.481 304.742 273.272 302.679C269.513 302.096 210.628 300.746 210.044 299.439C208.111 295.399 209.656 266.842 210.379 232.809C211.286 189.066 193.357 199.175 184.997 221.425Z" fill="#FFCCB3"/>
<path d="M267.051 363.649C288.404 366.177 314.833 370.627 337.051 360.874C339.544 359.847 341.62 358.014 342.948 355.668C352.982 351.477 354.019 345.472 354.019 345.472C362.162 338.7 362.378 332.424 362.378 332.424C362.378 332.424 374.097 327.37 372.218 319.777C370.133 311.244 354.073 320.014 342.3 319.442C315.298 318.113 273.326 308.457 265.614 307.302L267.051 363.649Z" fill="#FFCCB3"/>
<path d="M313.073 337.89C321.022 338.116 328.831 338.559 336.769 337.706C345.486 336.777 353.716 334.466 362.151 332.241C362.177 332.232 362.205 332.229 362.233 332.231C362.26 332.233 362.287 332.241 362.312 332.253C362.336 332.266 362.358 332.283 362.376 332.304C362.394 332.325 362.407 332.349 362.416 332.376C362.424 332.402 362.428 332.43 362.425 332.457C362.423 332.485 362.416 332.511 362.403 332.536C362.391 332.561 362.373 332.582 362.352 332.6C362.331 332.618 362.307 332.632 362.281 332.64C347.635 339.013 328.798 340.881 313.051 338.246C312.673 338.192 312.673 337.879 313.073 337.89Z" fill="#263238"/>
<path d="M309.909 354.069C317.653 353.863 331.273 353.421 353.965 345.19C354.041 345.19 354.105 345.277 354.03 345.32C339.989 352.621 325.57 355.332 309.919 354.436C309.433 354.403 309.39 354.079 309.909 354.069Z" fill="#263238"/>
<path d="M308.364 362.785C321.53 361.943 329.717 359.739 342.927 355.592C342.991 355.592 343.056 355.689 342.981 355.721C328.475 362.018 322.459 362.656 308.332 363.282C307.846 363.26 307.846 362.818 308.364 362.785Z" fill="#263238"/>
<path d="M309.876 315.78C306.431 314.214 307.219 312.4 313.764 310.801C320.31 309.203 347.528 308.414 346.448 298.92C345.367 289.426 307.392 292.893 296.289 294.6C284.638 296.576 273.602 301.215 264.038 308.155C271.577 309.343 295.111 313.296 309.876 315.78Z" fill="#FFCCB3"/>
<path d="M211.697 286.856L154.248 299.644C154.248 299.644 173.894 239.105 186.65 215.495C200.043 190.891 212.334 190.016 213.155 227.019C213.879 263.569 211.697 286.856 211.697 286.856Z" fill="#5DBD6D"/>
<path d="M161.646 288.314C163.05 287.839 164.541 287.558 165.967 287.234L170.416 286.154C173.43 285.43 176.454 284.76 179.478 284.102C185.516 282.795 191.564 281.455 197.624 280.246C199.298 279.922 200.961 279.587 202.635 279.306C204.309 279.025 206.189 278.82 207.949 278.518C208.057 278.518 208.068 278.658 207.949 278.68C206.459 279.047 205.001 279.544 203.51 279.922C202.02 280.3 200.464 280.678 198.93 281.002C195.906 281.679 192.882 282.337 189.858 282.978C183.896 284.22 177.977 285.495 171.95 286.607L166.928 287.536C165.189 287.86 163.418 288.292 161.646 288.454C161.592 288.476 161.549 288.346 161.646 288.314Z" fill="#263238"/>
<path d="M167.338 264.897C168.72 260.998 169.984 257.077 171.313 253.168C172.814 248.728 174.175 244.246 175.633 239.785C175.633 239.677 175.471 239.613 175.428 239.721C173.624 244.473 167.478 260.307 166.506 262.996C163.666 270.827 160.825 278.657 158.049 286.51C156.494 290.916 154.809 296.003 153.275 300.41C153.167 300.734 157.779 299.481 160.199 298.758C160.328 298.758 160.415 298.272 160.253 298.315C157.963 298.833 154.852 299.168 154.507 299.254C157.455 291.802 160.285 284.295 163.061 276.767C164.508 272.821 165.934 268.865 167.338 264.897Z" fill="#263238"/>
<path d="M203.434 285.808C203.042 286.81 202.735 287.844 202.516 288.897L203.456 288.692C203.879 287.904 204.258 287.093 204.59 286.262C205.161 284.771 205.525 283.208 205.67 281.617C204.725 282.898 203.972 284.31 203.434 285.808V285.808ZM176.432 262.457C175.847 263.944 175.483 265.509 175.352 267.101C177.223 264.487 178.394 261.439 178.754 258.245C177.776 259.526 176.993 260.946 176.432 262.457V262.457ZM204.514 254.259C203.881 252.783 203.041 251.405 202.019 250.166C202.244 251.754 202.702 253.301 203.38 254.756C204.011 256.233 204.851 257.612 205.875 258.849C205.666 257.265 205.229 255.719 204.579 254.259H204.514ZM204.233 207.891C203.603 206.417 202.762 205.042 201.738 203.809C201.974 205.391 202.433 206.933 203.099 208.388C203.73 209.865 204.57 211.244 205.594 212.482C205.385 210.897 204.949 209.351 204.298 207.891H204.233ZM174.142 288.811C172.673 289.447 171.299 290.283 170.06 291.295C171.648 291.067 173.194 290.609 174.65 289.934C176.121 289.302 177.495 288.466 178.733 287.45C177.168 287.689 175.644 288.147 174.207 288.811H174.142ZM190.732 231.34C189.257 231.971 187.879 232.807 186.639 233.824C188.23 233.586 189.777 233.112 191.229 232.42C192.707 231.795 194.086 230.958 195.323 229.936C193.734 230.184 192.188 230.657 190.732 231.34V231.34Z" fill="white"/>
<path d="M52.4508 441.182C53.7945 441.174 55.108 440.783 56.2383 440.057C57.3685 439.33 58.2688 438.297 58.8341 437.078C58.8341 437.078 61.7071 439.875 66.3946 437.942C71.0821 436.009 75.9857 424.236 72.5079 414.439C69.03 404.643 59.8925 402.332 52.5372 409.989C42.5897 406.35 35.364 412.452 36.5952 422.778C37.8265 433.103 47.4176 441.528 52.4508 441.182Z" fill="#5DBD6D"/>
<path d="M44.1016 398.821C46.6752 399.58 48.9919 401.029 50.8007 403.011C52.6094 404.993 53.8411 407.433 54.3624 410.065C54.8376 412.484 51.1221 413.37 50.6037 410.929C49.7936 406.846 46.2834 405.031 42.3087 403.843C39.9325 403.131 41.7147 398.108 44.1016 398.821Z" fill="#37474F"/>
<path d="M51.8457 412.549C51.8457 412.549 52.5694 401.283 63.4133 399.814C62.9464 402.838 61.6009 405.657 59.5441 407.921C57.4873 410.185 54.8101 411.794 51.8457 412.549V412.549Z" fill="#37474F"/>
<path d="M88.8171 439.27C89.6608 440.321 90.787 441.109 92.0632 441.541C93.3394 441.973 94.7126 442.032 96.0212 441.711C96.0212 441.711 95.6 445.707 100.018 448.191C104.435 450.676 116.726 447.252 122.278 438.471C127.83 429.69 123.995 421.071 113.432 420.012C110.192 409.946 100.882 408.034 93.5263 415.379C86.1709 422.723 85.4149 435.49 88.8171 439.27Z" fill="#5DBD6D"/>
<path d="M116.964 406.523C117.958 409.015 118.25 411.731 117.811 414.377C117.371 417.024 116.215 419.499 114.469 421.536C112.86 423.415 109.846 421.007 111.466 419.127C114.177 415.963 113.443 412.096 111.909 408.218C110.991 405.918 116.046 404.211 116.964 406.523Z" fill="#37474F"/>
<path d="M110.991 421.06C110.991 421.06 120.301 414.666 128.154 422.291C125.487 423.791 122.439 424.473 119.387 424.255C116.336 424.036 113.416 422.925 110.991 421.06Z" fill="#37474F"/>
<path d="M81.6889 446.226C80.364 446.004 79.1295 445.41 78.1293 444.513C77.1292 443.616 76.4046 442.453 76.0401 441.16C76.0401 441.16 72.7999 443.471 68.4148 440.825C64.0296 438.179 61.1242 425.769 66.1034 416.642C71.0826 407.516 80.4684 406.684 86.5277 415.4C96.9288 413.391 103.096 420.563 100.245 430.521C97.3933 440.48 86.6465 447.36 81.6889 446.226Z" fill="#5DBD6D"/>
<path opacity="0.1" d="M81.6889 446.226C80.364 446.004 79.1295 445.41 78.1293 444.513C77.1292 443.616 76.4046 442.453 76.0401 441.16C76.0401 441.16 72.7999 443.471 68.4148 440.825C64.0296 438.179 61.1242 425.769 66.1034 416.642C71.0826 407.516 80.4684 406.684 86.5277 415.4C96.9288 413.391 103.096 420.563 100.245 430.521C97.3933 440.48 86.6465 447.36 81.6889 446.226Z" fill="black"/>
<path d="M96.6368 405.712C93.9807 406.061 91.4703 407.128 89.3765 408.8C87.2827 410.471 85.6851 412.682 84.7559 415.195C83.9026 417.506 87.4669 418.975 88.331 416.642C89.7675 412.743 93.5153 411.501 97.6412 410.961C100.071 410.637 99.0994 405.388 96.6368 405.712Z" fill="#37474F"/>
<path d="M86.8296 417.949C86.8296 417.949 87.9097 406.716 77.4222 403.552C77.4034 406.61 78.2855 409.606 79.9584 412.167C81.6314 414.727 84.0212 416.738 86.8296 417.949Z" fill="#37474F"/>
<path d="M138.814 444.293C137.524 444.676 136.153 444.686 134.859 444.32C133.564 443.955 132.4 443.23 131.501 442.23C131.501 442.23 129.579 445.751 124.513 445.276C119.448 444.8 111.336 434.972 111.801 424.581C112.265 414.191 120.323 409.32 129.601 414.483C138.047 408.099 146.741 411.826 148.578 422.043C150.414 432.261 143.76 443.137 138.814 444.293Z" fill="#5DBD6D"/>
<path opacity="0.1" d="M138.814 444.293C137.524 444.676 136.153 444.686 134.859 444.32C133.564 443.955 132.4 443.23 131.501 442.23C131.501 442.23 129.579 445.751 124.513 445.276C119.448 444.8 111.336 434.972 111.801 424.581C112.265 414.191 120.323 409.32 129.601 414.483C138.047 408.099 146.741 411.826 148.578 422.043C150.414 432.261 143.76 443.137 138.814 444.293Z" fill="black"/>
<path d="M134.407 401.338C132.178 402.823 130.396 404.888 129.254 407.311C128.112 409.734 127.653 412.423 127.927 415.087C128.175 417.55 132.02 417.248 131.772 414.817C131.351 410.681 134.17 407.927 137.637 405.615C139.667 404.243 136.481 399.966 134.407 401.338Z" fill="#37474F"/>
<path d="M131.005 416.675C131.005 416.675 127.02 406.112 116.219 407.883C117.55 410.637 119.661 412.939 122.29 414.502C124.919 416.065 127.95 416.821 131.005 416.675V416.675Z" fill="#37474F"/>
<g filter="url(#filter0_bii_1_1862)">
<path d="M148.383 429.538C148.383 429.538 138.501 466.552 125.572 466.552H57.1383C44.1774 466.552 34.3379 429.538 34.3379 429.538H148.383Z" fill="#F7FCF7"/>
</g>
</g>
<defs>
<filter id="filter0_bii_1_1862" x="8.33789" y="403.538" width="166.045" height="89.0143" filterUnits="userSpaceOnUse" color-interpolation-filters="sRGB">
<feFlood flood-opacity="0" result="BackgroundImageFix"/>
<feGaussianBlur in="BackgroundImageFix" stdDeviation="13"/>
<feComposite in2="SourceAlpha" operator="in" result="effect1_backgroundBlur_1_1862"/>
<feBlend mode="normal" in="SourceGraphic" in2="effect1_backgroundBlur_1_1862" result="shape"/>
<feColorMatrix in="SourceAlpha" type="matrix" values="0 0 0 0 0 0 0 0 0 0 0 0 0 0 0 0 0 0 127 0" result="hardAlpha"/>
<feOffset dx="3" dy="-2"/>
<feGaussianBlur stdDeviation="4"/>
<feComposite in2="hardAlpha" operator="arithmetic" k2="-1" k3="1"/>
<feColorMatrix type="matrix" values="0 0 0 0 0.289159 0 0 0 0 0.527306 0 0 0 0 0.327262 0 0 0 0.13 0"/>
<feBlend mode="normal" in2="shape" result="effect2_innerShadow_1_1862"/>
<feColorMatrix in="SourceAlpha" type="matrix" values="0 0 0 0 0 0 0 0 0 0 0 0 0 0 0 0 0 0 127 0" result="hardAlpha"/>
<feOffset dx="-3" dy="2"/>
<feGaussianBlur stdDeviation="4"/>
<feComposite in2="hardAlpha" operator="arithmetic" k2="-1" k3="1"/>
<feColorMatrix type="matrix" values="0 0 0 0 0.192654 0 0 0 0 0.423868 0 0 0 0 0.229648 0 0 0 0.12 0"/>
<feBlend mode="normal" in2="effect2_innerShadow_1_1862" result="effect3_innerShadow_1_1862"/>
</filter>
<clipPath id="clip0_1_1862">
<rect width="540.039" height="467.674" fill="white" transform="translate(0.919434 0.203125)"/>
</clipPath>
</defs>
</svg>
