<svg width="444" height="396" viewBox="0 0 444 396" fill="none" xmlns="http://www.w3.org/2000/svg">
<g clip-path="url(#clip0_1_1190)">
<rect width="443.402" height="396" rx="10" fill="white"/>
<rect width="445" height="52" fill="#5DBD6D"/>
<path d="M415.669 18.8701H399.56V20.7408H415.669V18.8701Z" fill="white"/>
<path d="M415.669 25.0732H399.56V26.9439H415.669V25.0732Z" fill="white"/>
<path d="M415.669 31.2764H399.56V33.1471H415.669V31.2764Z" fill="white"/>
<path d="M403.249 22.5924C404.787 22.5924 406.035 21.3405 406.035 19.7962C406.035 18.2519 404.787 17 403.249 17C401.71 17 400.462 18.2519 400.462 19.7962C400.462 21.3405 401.71 22.5924 403.249 22.5924Z" fill="white"/>
<path d="M414.197 26.0971C414.193 26.6493 414.026 27.188 413.718 27.6452C413.409 28.1025 412.973 28.4578 412.463 28.6664C411.954 28.875 411.394 28.9276 410.855 28.8175C410.316 28.7074 409.821 28.4395 409.434 28.0477C409.046 27.6559 408.783 27.1576 408.677 26.6158C408.571 26.0739 408.627 25.5127 408.838 25.0029C409.05 24.4931 409.407 24.0576 409.865 23.7512C410.323 23.4448 410.86 23.2813 411.411 23.2813C411.778 23.2812 412.142 23.3542 412.481 23.496C412.821 23.6377 413.129 23.8455 413.388 24.1072C413.647 24.3689 413.851 24.6795 413.99 25.021C414.129 25.3626 414.199 25.7283 414.197 26.0971Z" fill="white"/>
<path d="M405.819 35.0182C407.358 35.0182 408.606 33.7663 408.606 32.222C408.606 30.6777 407.358 29.4258 405.819 29.4258C404.281 29.4258 403.033 30.6777 403.033 32.222C403.033 33.7663 404.281 35.0182 405.819 35.0182Z" fill="white"/>
<path d="M16.9482 33V22.0909H21.2521C22.0795 22.0909 22.7844 22.2489 23.3668 22.565C23.9492 22.8775 24.3931 23.3125 24.6985 23.87C25.0075 24.424 25.1619 25.0632 25.1619 25.7876C25.1619 26.5121 25.0057 27.1513 24.6932 27.7053C24.3807 28.2592 23.9279 28.6907 23.3349 28.9996C22.7454 29.3086 22.0316 29.4631 21.1935 29.4631H18.4503V27.6147H20.8207C21.2646 27.6147 21.6303 27.5384 21.918 27.3857C22.2092 27.2294 22.4258 27.0146 22.5678 26.7411C22.7134 26.4641 22.7862 26.1463 22.7862 25.7876C22.7862 25.4254 22.7134 25.1094 22.5678 24.8395C22.4258 24.5661 22.2092 24.3548 21.918 24.2056C21.6268 24.0529 21.2575 23.9766 20.81 23.9766H19.2546V33H16.9482ZM28.7308 33.1545C28.2088 33.1545 27.7436 33.0639 27.3352 32.8828C26.9268 32.6982 26.6037 32.4265 26.3658 32.0678C26.1314 31.7056 26.0142 31.2546 26.0142 30.7148C26.0142 30.2603 26.0977 29.8786 26.2646 29.5696C26.4315 29.2607 26.6587 29.0121 26.9464 28.8239C27.234 28.6357 27.5607 28.4936 27.9265 28.3977C28.2958 28.3018 28.6829 28.2344 29.0877 28.1953C29.5636 28.1456 29.9471 28.0994 30.2383 28.0568C30.5295 28.0107 30.7408 27.9432 30.8722 27.8544C31.0036 27.7656 31.0692 27.6342 31.0692 27.4602V27.4283C31.0692 27.0909 30.9627 26.8299 30.7496 26.6452C30.5401 26.4606 30.2418 26.3683 29.8548 26.3683C29.4464 26.3683 29.1214 26.4588 28.88 26.6399C28.6385 26.8175 28.4787 27.0412 28.4006 27.3111L26.3018 27.1406C26.4084 26.6435 26.6179 26.2138 26.9304 25.8516C27.2429 25.4858 27.646 25.2053 28.1396 25.0099C28.6367 24.8111 29.212 24.7116 29.8654 24.7116C30.32 24.7116 30.755 24.7649 31.1705 24.8714C31.5895 24.978 31.9606 25.1431 32.2837 25.3668C32.6104 25.5906 32.8679 25.8782 33.0561 26.2298C33.2443 26.5778 33.3384 26.995 33.3384 27.4815V33H31.1864V31.8654H31.1225C30.9911 32.1211 30.8153 32.3466 30.5952 32.5419C30.375 32.7337 30.1104 32.8846 29.8015 32.9947C29.4925 33.1012 29.1357 33.1545 28.7308 33.1545ZM29.3807 31.5884C29.7145 31.5884 30.0092 31.5227 30.2649 31.3913C30.5206 31.2564 30.7212 31.0753 30.8668 30.848C31.0124 30.6207 31.0852 30.3633 31.0852 30.0756V29.2074C31.0142 29.2536 30.9165 29.2962 30.7923 29.3352C30.6715 29.3707 30.5348 29.4045 30.3821 29.4364C30.2294 29.4648 30.0767 29.4915 29.924 29.5163C29.7713 29.5376 29.6328 29.5572 29.5085 29.5749C29.2422 29.614 29.0096 29.6761 28.8107 29.7614C28.6119 29.8466 28.4574 29.962 28.3473 30.1076C28.2372 30.2496 28.1822 30.4272 28.1822 30.6403C28.1822 30.9492 28.294 31.1854 28.5178 31.3487C28.745 31.5085 29.0327 31.5884 29.3807 31.5884ZM42.2527 24.8182V31.4339H43.5577V35.6314H41.3525V33H35.0989V24.8182H37.2669V31.2156H40.1113V24.8182H42.2527ZM44.9573 33V24.8182H47.2265V33H44.9573ZM46.0972 23.7635C45.7599 23.7635 45.4704 23.6516 45.229 23.4279C44.991 23.2006 44.8721 22.929 44.8721 22.6129C44.8721 22.3004 44.991 22.0323 45.229 21.8086C45.4704 21.5813 45.7599 21.4677 46.0972 21.4677C46.4346 21.4677 46.7222 21.5813 46.9601 21.8086C47.2016 22.0323 47.3224 22.3004 47.3224 22.6129C47.3224 22.929 47.2016 23.2006 46.9601 23.4279C46.7222 23.6516 46.4346 23.7635 46.0972 23.7635ZM52.7409 33.1598C51.9135 33.1598 51.198 32.984 50.5943 32.6325C49.9941 32.2773 49.5307 31.7837 49.204 31.1516C48.8773 30.516 48.714 29.7791 48.714 28.9411C48.714 28.0959 48.8773 27.3572 49.204 26.7251C49.5307 26.0895 49.9941 25.5959 50.5943 25.2443C51.198 24.8892 51.9135 24.7116 52.7409 24.7116C53.5684 24.7116 54.2821 24.8892 54.8823 25.2443C55.486 25.5959 55.9512 26.0895 56.2779 26.7251C56.6046 27.3572 56.7679 28.0959 56.7679 28.9411C56.7679 29.7791 56.6046 30.516 56.2779 31.1516C55.9512 31.7837 55.486 32.2773 54.8823 32.6325C54.2821 32.984 53.5684 33.1598 52.7409 33.1598ZM52.7516 31.402C53.128 31.402 53.4423 31.2955 53.6944 31.0824C53.9466 30.8658 54.1365 30.571 54.2644 30.1982C54.3958 29.8253 54.4615 29.4009 54.4615 28.9251C54.4615 28.4492 54.3958 28.0249 54.2644 27.652C54.1365 27.2791 53.9466 26.9844 53.6944 26.7678C53.4423 26.5511 53.128 26.4428 52.7516 26.4428C52.3716 26.4428 52.052 26.5511 51.7928 26.7678C51.5371 26.9844 51.3436 27.2791 51.2122 27.652C51.0843 28.0249 51.0204 28.4492 51.0204 28.9251C51.0204 29.4009 51.0843 29.8253 51.2122 30.1982C51.3436 30.571 51.5371 30.8658 51.7928 31.0824C52.052 31.2955 52.3716 31.402 52.7516 31.402ZM63.9377 28.0036V29.788H59.6657V28.0036H63.9377ZM60.4114 24.8182V33H58.2434V24.8182H60.4114ZM65.3599 24.8182V33H63.2079V24.8182H65.3599ZM74.2888 33.1598C73.4507 33.1598 72.7298 32.9822 72.1262 32.6271C71.526 32.2685 71.0644 31.7713 70.7412 31.1357C70.4216 30.5 70.2618 29.7685 70.2618 28.9411C70.2618 28.103 70.4234 27.3679 70.7465 26.7358C71.0732 26.1001 71.5367 25.6048 72.1368 25.2496C72.7369 24.891 73.4507 24.7116 74.2781 24.7116C74.9919 24.7116 75.6169 24.8413 76.1531 25.1005C76.6894 25.3597 77.1137 25.7237 77.4262 26.1925C77.7387 26.6612 77.911 27.2116 77.9429 27.8438H75.8016C75.7412 27.4354 75.5814 27.1069 75.3222 26.8583C75.0665 26.6062 74.7309 26.4801 74.3154 26.4801C73.9639 26.4801 73.6567 26.576 73.3939 26.7678C73.1347 26.956 72.9323 27.2312 72.7867 27.5934C72.6411 27.9556 72.5683 28.3942 72.5683 28.9091C72.5683 29.4311 72.6393 29.875 72.7813 30.2408C72.9269 30.6065 73.1311 30.8853 73.3939 31.0771C73.6567 31.2688 73.9639 31.3647 74.3154 31.3647C74.5747 31.3647 74.8073 31.3114 75.0132 31.2049C75.2227 31.0984 75.395 30.9439 75.5299 30.7415C75.6684 30.5355 75.759 30.2887 75.8016 30.0011H77.9429C77.9074 30.6261 77.7369 31.1765 77.4316 31.6523C77.1297 32.1246 76.7124 32.494 76.1798 32.7603C75.6471 33.0266 75.0168 33.1598 74.2888 33.1598ZM79.3958 33V24.8182H86.5495V33H84.3816V26.6026H81.5371V33H79.3958ZM92.0574 33.1598C91.2299 33.1598 90.5144 32.984 89.9107 32.6325C89.3105 32.2773 88.8471 31.7837 88.5204 31.1516C88.1937 30.516 88.0304 29.7791 88.0304 28.9411C88.0304 28.0959 88.1937 27.3572 88.5204 26.7251C88.8471 26.0895 89.3105 25.5959 89.9107 25.2443C90.5144 24.8892 91.2299 24.7116 92.0574 24.7116C92.8848 24.7116 93.5985 24.8892 94.1987 25.2443C94.8024 25.5959 95.2676 26.0895 95.5943 26.7251C95.921 27.3572 96.0843 28.0959 96.0843 28.9411C96.0843 29.7791 95.921 30.516 95.5943 31.1516C95.2676 31.7837 94.8024 32.2773 94.1987 32.6325C93.5985 32.984 92.8848 33.1598 92.0574 33.1598ZM92.068 31.402C92.4444 31.402 92.7587 31.2955 93.0108 31.0824C93.263 30.8658 93.4529 30.571 93.5808 30.1982C93.7122 29.8253 93.7779 29.4009 93.7779 28.9251C93.7779 28.4492 93.7122 28.0249 93.5808 27.652C93.4529 27.2791 93.263 26.9844 93.0108 26.7678C92.7587 26.5511 92.4444 26.4428 92.068 26.4428C91.688 26.4428 91.3684 26.5511 91.1092 26.7678C90.8535 26.9844 90.66 27.2791 90.5286 27.652C90.4007 28.0249 90.3368 28.4492 90.3368 28.9251C90.3368 29.4009 90.4007 29.8253 90.5286 30.1982C90.66 30.571 90.8535 30.8658 91.1092 31.0824C91.3684 31.2955 91.688 31.402 92.068 31.402ZM97.5598 36.0682V24.8182H99.7971V26.1925H99.8983C99.9977 25.9723 100.142 25.7486 100.33 25.5213C100.521 25.2905 100.77 25.0987 101.075 24.946C101.384 24.7898 101.768 24.7116 102.226 24.7116C102.823 24.7116 103.373 24.8679 103.877 25.1804C104.382 25.4893 104.785 25.9563 105.086 26.5813C105.388 27.2028 105.539 27.9822 105.539 28.9197C105.539 29.8324 105.392 30.603 105.097 31.2315C104.806 31.8565 104.408 32.3306 103.904 32.6538C103.403 32.9734 102.842 33.1332 102.221 33.1332C101.78 33.1332 101.406 33.0604 101.097 32.9148C100.791 32.7692 100.541 32.5863 100.346 32.3661C100.15 32.1424 100.001 31.9169 99.8983 31.6896H99.829V36.0682H97.5598ZM99.7811 28.9091C99.7811 29.3956 99.8485 29.82 99.9835 30.1822C100.118 30.5444 100.314 30.8267 100.569 31.0291C100.825 31.228 101.136 31.3274 101.502 31.3274C101.871 31.3274 102.183 31.2262 102.439 31.0238C102.695 30.8178 102.888 30.5337 103.02 30.1715C103.155 29.8058 103.222 29.3849 103.222 28.9091C103.222 28.4368 103.156 28.0213 103.025 27.6626C102.894 27.304 102.7 27.0234 102.444 26.821C102.189 26.6186 101.874 26.5174 101.502 26.5174C101.132 26.5174 100.82 26.6151 100.564 26.8104C100.312 27.0057 100.118 27.2827 99.9835 27.6413C99.8485 28 99.7811 28.4226 99.7811 28.9091ZM106.26 26.6026V24.8182H113.674V26.6026H111.038V33H108.875V26.6026H106.26ZM118.454 33.1598C117.616 33.1598 116.895 32.9822 116.291 32.6271C115.691 32.2685 115.229 31.7713 114.906 31.1357C114.587 30.5 114.427 29.7685 114.427 28.9411C114.427 28.103 114.588 27.3679 114.912 26.7358C115.238 26.1001 115.702 25.6048 116.302 25.2496C116.902 24.891 117.616 24.7116 118.443 24.7116C119.157 24.7116 119.782 24.8413 120.318 25.1005C120.854 25.3597 121.279 25.7237 121.591 26.1925C121.904 26.6612 122.076 27.2116 122.108 27.8438H119.967C119.906 27.4354 119.746 27.1069 119.487 26.8583C119.232 26.6062 118.896 26.4801 118.48 26.4801C118.129 26.4801 117.822 26.576 117.559 26.7678C117.3 26.956 117.097 27.2312 116.952 27.5934C116.806 27.9556 116.733 28.3942 116.733 28.9091C116.733 29.4311 116.804 29.875 116.946 30.2408C117.092 30.6065 117.296 30.8853 117.559 31.0771C117.822 31.2688 118.129 31.3647 118.48 31.3647C118.74 31.3647 118.972 31.3114 119.178 31.2049C119.388 31.0984 119.56 30.9439 119.695 30.7415C119.833 30.5355 119.924 30.2887 119.967 30.0011H122.108C122.072 30.6261 121.902 31.1765 121.597 31.6523C121.295 32.1246 120.877 32.494 120.345 32.7603C119.812 33.0266 119.182 33.1598 118.454 33.1598ZM128.397 30.4911L130.613 24.8182H132.339L129.149 33H127.641L124.525 24.8182H126.245L128.397 30.4911ZM125.729 24.8182V33H123.561V24.8182H125.729ZM131.178 33V24.8182H133.319V33H131.178ZM138.803 33.1598C137.962 33.1598 137.237 32.9893 136.63 32.6484C136.026 32.304 135.561 31.8175 135.234 31.1889C134.908 30.5568 134.744 29.8093 134.744 28.9464C134.744 28.1048 134.908 27.3661 135.234 26.7305C135.561 26.0948 136.021 25.5994 136.614 25.2443C137.21 24.8892 137.91 24.7116 138.713 24.7116C139.252 24.7116 139.755 24.7987 140.22 24.9727C140.689 25.1431 141.097 25.4006 141.445 25.745C141.797 26.0895 142.07 26.5227 142.266 27.0447C142.461 27.5632 142.559 28.1705 142.559 28.8665V29.4897H135.65V28.0835H140.422C140.422 27.7567 140.351 27.4673 140.209 27.2152C140.067 26.9631 139.87 26.766 139.618 26.6239C139.37 26.4783 139.08 26.4055 138.75 26.4055C138.405 26.4055 138.1 26.4854 137.834 26.6452C137.571 26.8015 137.365 27.0128 137.216 27.2791C137.067 27.5419 136.99 27.8349 136.987 28.158V29.495C136.987 29.8999 137.061 30.2496 137.21 30.5444C137.363 30.8391 137.578 31.0664 137.855 31.2262C138.132 31.386 138.46 31.4659 138.84 31.4659C139.093 31.4659 139.323 31.4304 139.533 31.3594C139.742 31.2884 139.922 31.1818 140.071 31.0398C140.22 30.8977 140.334 30.7237 140.412 30.5178L142.511 30.6562C142.404 31.1605 142.186 31.6009 141.855 31.9773C141.529 32.3501 141.106 32.6413 140.588 32.8509C140.073 33.0568 139.478 33.1598 138.803 33.1598ZM149.734 28.0036V29.788H145.462V28.0036H149.734ZM146.207 24.8182V33H144.039V24.8182H146.207ZM151.156 24.8182V33H149.004V24.8182H151.156ZM155.249 33.1545C154.727 33.1545 154.262 33.0639 153.854 32.8828C153.445 32.6982 153.122 32.4265 152.884 32.0678C152.65 31.7056 152.533 31.2546 152.533 30.7148C152.533 30.2603 152.616 29.8786 152.783 29.5696C152.95 29.2607 153.177 29.0121 153.465 28.8239C153.753 28.6357 154.079 28.4936 154.445 28.3977C154.814 28.3018 155.201 28.2344 155.606 28.1953C156.082 28.1456 156.466 28.0994 156.757 28.0568C157.048 28.0107 157.259 27.9432 157.391 27.8544C157.522 27.7656 157.588 27.6342 157.588 27.4602V27.4283C157.588 27.0909 157.481 26.8299 157.268 26.6452C157.059 26.4606 156.76 26.3683 156.373 26.3683C155.965 26.3683 155.64 26.4588 155.399 26.6399C155.157 26.8175 154.997 27.0412 154.919 27.3111L152.82 27.1406C152.927 26.6435 153.136 26.2138 153.449 25.8516C153.761 25.4858 154.165 25.2053 154.658 25.0099C155.155 24.8111 155.731 24.7116 156.384 24.7116C156.839 24.7116 157.274 24.7649 157.689 24.8714C158.108 24.978 158.479 25.1431 158.802 25.3668C159.129 25.5906 159.386 25.8782 159.575 26.2298C159.763 26.5778 159.857 26.995 159.857 27.4815V33H157.705V31.8654H157.641C157.51 32.1211 157.334 32.3466 157.114 32.5419C156.894 32.7337 156.629 32.8846 156.32 32.9947C156.011 33.1012 155.654 33.1545 155.249 33.1545ZM155.899 31.5884C156.233 31.5884 156.528 31.5227 156.783 31.3913C157.039 31.2564 157.24 31.0753 157.385 30.848C157.531 30.6207 157.604 30.3633 157.604 30.0756V29.2074C157.533 29.2536 157.435 29.2962 157.311 29.3352C157.19 29.3707 157.053 29.4045 156.901 29.4364C156.748 29.4648 156.595 29.4915 156.443 29.5163C156.29 29.5376 156.151 29.5572 156.027 29.5749C155.761 29.614 155.528 29.6761 155.329 29.7614C155.13 29.8466 154.976 29.962 154.866 30.1076C154.756 30.2496 154.701 30.4272 154.701 30.6403C154.701 30.9492 154.813 31.1854 155.036 31.3487C155.264 31.5085 155.551 31.5884 155.899 31.5884Z" fill="white"/>
<path d="M6.9751 152.785L29.5602 152.571L52.1453 152.499L97.3037 152.345L142.474 152.488L165.059 152.571L187.644 152.785L165.059 153.011L142.474 153.083L97.3037 153.238L52.1453 153.083L29.5602 153.011L6.9751 152.785Z" fill="#EBEBEB"/>
<path d="M20.7693 139V128.61H24.4016C25.1254 128.61 25.7223 128.736 26.1924 128.986C26.6625 129.233 27.0125 129.566 27.2425 129.985C27.4725 130.401 27.5875 130.863 27.5875 131.37C27.5875 131.817 27.508 132.185 27.349 132.476C27.1935 132.767 26.9872 132.997 26.7301 133.166C26.4765 133.335 26.2008 133.46 25.9032 133.541V133.643C26.2211 133.663 26.5407 133.775 26.862 133.978C27.1833 134.181 27.4522 134.471 27.6686 134.85C27.8851 135.229 27.9933 135.692 27.9933 136.24C27.9933 136.761 27.8749 137.23 27.6382 137.646C27.4015 138.061 27.0277 138.391 26.5171 138.635C26.0064 138.878 25.3418 139 24.5234 139H20.7693ZM22.0274 137.884H24.5234C25.3452 137.884 25.9286 137.725 26.2736 137.407C26.6219 137.086 26.7961 136.697 26.7961 136.24C26.7961 135.889 26.7065 135.564 26.5272 135.266C26.348 134.965 26.0926 134.725 25.7612 134.546C25.4297 134.363 25.0374 134.272 24.5842 134.272H22.0274V137.884ZM22.0274 133.176H24.361C24.7398 133.176 25.0814 133.102 25.3858 132.953C25.6935 132.804 25.937 132.594 26.1163 132.324C26.2989 132.053 26.3902 131.735 26.3902 131.37C26.3902 130.914 26.2313 130.526 25.9134 130.208C25.5955 129.887 25.0915 129.727 24.4016 129.727H22.0274V133.176ZM29.8982 139V131.208H31.0955V139H29.8982ZM30.507 129.909C30.2736 129.909 30.0724 129.83 29.9033 129.671C29.7376 129.512 29.6547 129.321 29.6547 129.097C29.6547 128.874 29.7376 128.683 29.9033 128.524C30.0724 128.365 30.2736 128.286 30.507 128.286C30.7403 128.286 30.9399 128.365 31.1056 128.524C31.2747 128.683 31.3593 128.874 31.3593 129.097C31.3593 129.321 31.2747 129.512 31.1056 129.671C30.9399 129.83 30.7403 129.909 30.507 129.909ZM32.8418 132.324V131.208H39.173V132.324H36.6162V139H35.4189V132.324H32.8418ZM42.8078 139.183C42.314 139.183 41.8659 139.09 41.4634 138.904C41.061 138.714 40.7414 138.442 40.5046 138.087C40.2679 137.728 40.1495 137.295 40.1495 136.788C40.1495 136.342 40.2375 135.98 40.4133 135.703C40.5892 135.422 40.8242 135.202 41.1185 135.043C41.4127 134.884 41.7374 134.766 42.0925 134.688C42.451 134.607 42.8112 134.543 43.173 134.495C43.6465 134.434 44.0304 134.389 44.3246 134.358C44.6222 134.324 44.8387 134.269 44.974 134.191C45.1126 134.113 45.182 133.978 45.182 133.785V133.744C45.182 133.244 45.045 132.855 44.771 132.578C44.5005 132.3 44.0896 132.162 43.5383 132.162C42.9667 132.162 42.5186 132.287 42.1939 132.537C41.8693 132.787 41.641 133.054 41.5091 133.339L40.3727 132.933C40.5757 132.459 40.8462 132.091 41.1844 131.827C41.526 131.56 41.898 131.374 42.3005 131.269C42.7063 131.161 43.1054 131.106 43.4977 131.106C43.748 131.106 44.0355 131.137 44.3601 131.198C44.6882 131.255 45.0044 131.375 45.3088 131.558C45.6165 131.741 45.8719 132.016 46.0748 132.385C46.2777 132.753 46.3792 133.247 46.3792 133.866V139H45.182V137.945H45.1211C45.0399 138.114 44.9046 138.295 44.7152 138.488C44.5258 138.68 44.2739 138.844 43.9594 138.98C43.6448 139.115 43.261 139.183 42.8078 139.183ZM42.9904 138.107C43.4639 138.107 43.863 138.014 44.1876 137.828C44.5157 137.642 44.7626 137.402 44.9283 137.108C45.0974 136.814 45.182 136.504 45.182 136.179V135.084C45.1312 135.145 45.0196 135.2 44.8471 135.251C44.678 135.298 44.4819 135.341 44.2587 135.378C44.0388 135.412 43.8241 135.442 43.6144 135.469C43.4081 135.493 43.2407 135.513 43.1122 135.53C42.801 135.571 42.5102 135.637 42.2396 135.728C41.9724 135.816 41.756 135.949 41.5903 136.129C41.4279 136.305 41.3468 136.545 41.3468 136.849C41.3468 137.265 41.5006 137.58 41.8084 137.793C42.1195 138.002 42.5135 138.107 42.9904 138.107ZM52.8257 137.377L55.5449 131.208H56.6812L53.3127 139H52.3387L49.0311 131.208H50.1472L52.8257 137.377ZM49.7616 131.208V139H48.5644V131.208H49.7616ZM55.8898 139V131.208H57.0871V139H55.8898ZM59.2786 139V131.208H60.4758V139H59.2786ZM59.8874 129.909C59.654 129.909 59.4528 129.83 59.2837 129.671C59.1179 129.512 59.0351 129.321 59.0351 129.097C59.0351 128.874 59.1179 128.683 59.2837 128.524C59.4528 128.365 59.654 128.286 59.8874 128.286C60.1207 128.286 60.3203 128.365 60.486 128.524C60.6551 128.683 60.7396 128.874 60.7396 129.097C60.7396 129.321 60.6551 129.512 60.486 129.671C60.3203 129.83 60.1207 129.909 59.8874 129.909ZM67.8837 134.556V135.672H63.5818V134.556H67.8837ZM63.8659 131.208V139H62.6686V131.208H63.8659ZM68.7968 131.208V139H67.5996V131.208H68.7968ZM72.1805 137.235L75.9346 131.208H77.3144V139H76.1172V132.973L72.3835 139H70.9833V131.208H72.1805V137.235Z" fill="#777575"/>
<path d="M6.9751 200.285L29.5602 200.071L52.1453 199.999L97.3037 199.845L142.474 199.988L165.059 200.071L187.644 200.285L165.059 200.511L142.474 200.583L97.3037 200.738L52.1453 200.583L29.5602 200.511L6.9751 200.285Z" fill="#EBEBEB"/>
<path d="M20.7693 188.237V177.848H27.0396V178.964H22.0274V182.211H24.6654C25.4095 182.211 26.0368 182.332 26.5475 182.576C27.0616 182.819 27.4505 183.163 27.7143 183.606C27.9815 184.049 28.1151 184.571 28.1151 185.173C28.1151 185.775 27.9815 186.306 27.7143 186.766C27.4505 187.226 27.0616 187.586 26.5475 187.847C26.0368 188.107 25.4095 188.237 24.6654 188.237H20.7693ZM22.0274 187.142H24.6654C25.1389 187.142 25.5397 187.047 25.8677 186.857C26.1992 186.665 26.4494 186.418 26.6185 186.117C26.791 185.812 26.8772 185.491 26.8772 185.153C26.8772 184.656 26.6862 184.228 26.304 183.869C25.9218 183.508 25.3756 183.327 24.6654 183.327H22.0274V187.142ZM30.0238 188.237V180.445H31.221V188.237H30.0238ZM30.6325 179.146C30.3992 179.146 30.198 179.067 30.0289 178.908C29.8631 178.749 29.7803 178.558 29.7803 178.335C29.7803 178.112 29.8631 177.92 30.0289 177.762C30.198 177.603 30.3992 177.523 30.6325 177.523C30.8659 177.523 31.0654 177.603 31.2312 177.762C31.4003 177.92 31.4848 178.112 31.4848 178.335C31.4848 178.558 31.4003 178.749 31.2312 178.908C31.0654 179.067 30.8659 179.146 30.6325 179.146ZM32.7239 188.237V187.121H33.008C33.2413 187.121 33.4358 187.076 33.5914 186.984C33.747 186.89 33.8721 186.726 33.9668 186.492C34.0649 186.255 34.1393 185.927 34.19 185.508C34.2441 185.085 34.283 184.548 34.3067 183.895L34.4487 180.445H39.6435V188.237H38.4463V181.561H35.5851L35.4633 184.341C35.4363 184.98 35.3788 185.544 35.2908 186.031C35.2063 186.514 35.0761 186.92 34.9002 187.248C34.7277 187.576 34.4978 187.823 34.2103 187.989C33.9228 188.154 33.5626 188.237 33.1297 188.237H32.7239ZM41.8401 188.237V180.445H43.0373V183.834H43.8287L46.629 180.445H48.1712L45.026 184.199L48.2118 188.237H46.6696L44.1128 184.95H43.0373V188.237H41.8401ZM50.7103 186.472L54.4643 180.445H55.8442V188.237H54.6469V182.211L50.9132 188.237H49.513V180.445H50.7103V186.472Z" fill="#777575"/>
<path d="M6.9751 245.832L29.5483 245.618L52.1335 245.535L97.3037 245.38L142.474 245.535L165.047 245.606L187.632 245.832L165.047 246.047L142.474 246.13L97.3037 246.273L52.1335 246.13L29.5483 246.047L6.9751 245.832Z" fill="#EBEBEB"/>
<path d="M26.9178 225.348V235.737H25.6597V225.348H26.9178ZM19.8968 235.737L23.2653 230.319L20.1809 225.348H21.7028L24.4016 229.954H28.1962L30.8951 225.348H32.417L29.3123 230.34L32.6808 235.737H31.24L28.4194 231.131H24.1581L21.3172 235.737H19.8968ZM35.3644 233.972L39.1184 227.945H40.4983V235.737H39.3011V229.711L35.5673 235.737H34.1672V227.945H35.3644V233.972ZM42.6911 238.659V227.945H43.8478V229.183H43.9898C44.0777 229.048 44.1995 228.875 44.3551 228.666C44.514 228.452 44.7406 228.263 45.0348 228.097C45.3325 227.928 45.7349 227.844 46.2422 227.844C46.8983 227.844 47.4766 228.008 47.9772 228.336C48.4777 228.664 48.8683 229.129 49.1491 229.731C49.4298 230.333 49.5701 231.043 49.5701 231.862C49.5701 232.687 49.4298 233.402 49.1491 234.007C48.8683 234.609 48.4794 235.076 47.9823 235.408C47.4851 235.736 46.9119 235.9 46.2625 235.9C45.762 235.9 45.3612 235.817 45.0602 235.651C44.7592 235.482 44.5275 235.291 44.3652 235.078C44.2029 234.861 44.0777 234.682 43.9898 234.54H43.8883V238.659H42.6911ZM43.868 231.841C43.868 232.43 43.9543 232.949 44.1268 233.399C44.2993 233.845 44.5512 234.195 44.8826 234.449C45.2141 234.699 45.6199 234.824 46.1002 234.824C46.6007 234.824 47.0184 234.692 47.3532 234.428C47.6914 234.161 47.9451 233.803 48.1142 233.353C48.2866 232.9 48.3729 232.396 48.3729 231.841C48.3729 231.293 48.2883 230.8 48.1192 230.36C47.9535 229.917 47.7016 229.567 47.3634 229.31C47.0285 229.049 46.6075 228.919 46.1002 228.919C45.6132 228.919 45.2039 229.043 44.8725 229.29C44.5411 229.533 44.2908 229.875 44.1217 230.314C43.9526 230.751 43.868 231.26 43.868 231.841ZM52.5936 233.972L56.3477 227.945H57.7275V235.737H56.5303V229.711L52.7966 235.737H51.3964V227.945H52.5936V233.972Z" fill="#777575"/>
<path d="M6.9751 289.617L29.5602 289.403L52.1453 289.332L97.3037 289.177L142.474 289.332L165.059 289.403L187.644 289.617L165.059 289.843L142.474 289.915L97.3037 290.07L52.1453 289.915L29.5602 289.843L6.9751 289.617Z" fill="#EBEBEB"/>
<path d="M21.9598 281.272V270.883H25.592C26.3158 270.883 26.9127 271.008 27.3828 271.258C27.8529 271.505 28.203 271.838 28.4329 272.258C28.6629 272.674 28.7779 273.135 28.7779 273.643C28.7779 274.089 28.6984 274.458 28.5395 274.749C28.3839 275.039 28.1776 275.269 27.9206 275.438C27.6669 275.608 27.3913 275.733 27.0937 275.814V275.915C27.4116 275.936 27.7312 276.047 28.0525 276.25C28.3738 276.453 28.6426 276.744 28.8591 277.123C29.0755 277.502 29.1837 277.965 29.1837 278.513C29.1837 279.034 29.0654 279.502 28.8286 279.918C28.5919 280.334 28.2182 280.664 27.7075 280.907C27.1968 281.151 26.5322 281.272 25.7138 281.272H21.9598ZM23.2179 280.156H25.7138C26.5356 280.156 27.119 279.997 27.464 279.68C27.8123 279.358 27.9865 278.969 27.9865 278.513C27.9865 278.161 27.8969 277.836 27.7176 277.539C27.5384 277.238 27.2831 276.998 26.9516 276.818C26.6202 276.636 26.2279 276.544 25.7747 276.544H23.2179V280.156ZM23.2179 275.449H25.5515C25.9302 275.449 26.2718 275.374 26.5762 275.225C26.884 275.077 27.1275 274.867 27.3067 274.596C27.4894 274.326 27.5807 274.008 27.5807 273.643C27.5807 273.186 27.4217 272.799 27.1038 272.481C26.7859 272.16 26.282 271.999 25.592 271.999H23.2179V275.449ZM31.8598 284.195C31.6568 284.195 31.4759 284.178 31.3169 284.144C31.158 284.113 31.0481 284.083 30.9872 284.052L31.2916 282.997C31.5824 283.072 31.8395 283.099 32.0627 283.078C32.2859 283.058 32.4837 282.958 32.6562 282.779C32.8321 282.603 32.9927 282.318 33.1382 281.922L33.3614 281.313L30.4799 273.48H31.7786L33.9295 279.69H34.0107L36.1617 273.48H37.4604L34.1528 282.409C34.004 282.811 33.8196 283.144 33.5998 283.408C33.38 283.675 33.1246 283.873 32.8338 284.002C32.5463 284.13 32.2216 284.195 31.8598 284.195ZM43.8498 273.48V274.596H40.2378V281.272H39.0406V273.48H43.8498ZM44.2519 281.272V280.156H44.536C44.7693 280.156 44.9638 280.111 45.1194 280.019C45.2749 279.925 45.4001 279.761 45.4948 279.527C45.5928 279.291 45.6672 278.963 45.718 278.543C45.7721 278.12 45.811 277.583 45.8346 276.93L45.9767 273.48H51.1715V281.272H49.9742V274.596H47.113L46.9913 277.376C46.9642 278.016 46.9067 278.579 46.8188 279.066C46.7343 279.549 46.6041 279.955 46.4282 280.283C46.2557 280.611 46.0257 280.858 45.7383 281.024C45.4508 281.19 45.0906 281.272 44.6577 281.272H44.2519ZM56.6351 281.435C55.8843 281.435 55.2366 281.269 54.6921 280.938C54.151 280.603 53.7333 280.136 53.4391 279.537C53.1482 278.935 53.0028 278.235 53.0028 277.437C53.0028 276.639 53.1482 275.936 53.4391 275.327C53.7333 274.715 54.1426 274.238 54.6668 273.896C55.1944 273.551 55.8099 273.379 56.5133 273.379C56.9192 273.379 57.32 273.446 57.7156 273.582C58.1113 273.717 58.4715 273.937 58.7962 274.241C59.1209 274.542 59.3796 274.941 59.5724 275.438C59.7651 275.936 59.8615 276.548 59.8615 277.275V277.782H53.8551V276.747H58.644C58.644 276.308 58.5561 275.915 58.3802 275.57C58.2077 275.225 57.9608 274.953 57.6396 274.754C57.3216 274.554 56.9462 274.454 56.5133 274.454C56.0365 274.454 55.6239 274.573 55.2755 274.809C54.9306 275.043 54.6651 275.347 54.4791 275.723C54.2931 276.098 54.2 276.5 54.2 276.93V277.62C54.2 278.208 54.3015 278.707 54.5044 279.116C54.7107 279.522 54.9965 279.832 55.3618 280.045C55.727 280.254 56.1515 280.359 56.6351 280.359C56.9496 280.359 57.2337 280.315 57.4874 280.227C57.7444 280.136 57.9659 280.001 58.1519 279.822C58.3379 279.639 58.4817 279.412 58.5831 279.142L59.7398 279.466C59.618 279.859 59.4134 280.204 59.1259 280.501C58.8385 280.796 58.4834 281.026 58.0606 281.191C57.6379 281.354 57.1627 281.435 56.6351 281.435ZM61.6827 281.272V273.48H64.8686C65.7073 273.48 66.3736 273.67 66.8674 274.048C67.3611 274.427 67.608 274.928 67.608 275.55C67.608 276.024 67.4677 276.391 67.187 276.651C66.9063 276.908 66.5461 277.082 66.1064 277.173C66.3939 277.214 66.6729 277.316 66.9435 277.478C67.2174 277.64 67.444 277.863 67.6232 278.147C67.8025 278.428 67.8921 278.773 67.8921 279.182C67.8921 279.581 67.7907 279.938 67.5877 280.253C67.3848 280.567 67.094 280.816 66.7152 280.999C66.3364 281.181 65.8832 281.272 65.3556 281.272H61.6827ZM62.8191 280.177H65.3556C65.7682 280.177 66.0912 280.079 66.3246 279.882C66.5579 279.686 66.6746 279.419 66.6746 279.081C66.6746 278.678 66.5579 278.362 66.3246 278.132C66.0912 277.899 65.7682 277.782 65.3556 277.782H62.8191V280.177ZM62.8191 276.747H64.8686C65.1899 276.747 65.4655 276.703 65.6955 276.615C65.9255 276.524 66.1013 276.396 66.2231 276.23C66.3482 276.061 66.4108 275.861 66.4108 275.631C66.4108 275.303 66.2738 275.046 65.9999 274.86C65.7259 274.671 65.3488 274.576 64.8686 274.576H62.8191V276.747ZM72.87 281.435C72.1666 281.435 71.5493 281.267 71.0184 280.933C70.4908 280.598 70.0782 280.129 69.7805 279.527C69.4863 278.925 69.3392 278.222 69.3392 277.417C69.3392 276.605 69.4863 275.897 69.7805 275.291C70.0782 274.686 70.4908 274.216 71.0184 273.881C71.5493 273.546 72.1666 273.379 72.87 273.379C73.5735 273.379 74.189 273.546 74.7166 273.881C75.2476 274.216 75.6602 274.686 75.9544 275.291C76.252 275.897 76.4008 276.605 76.4008 277.417C76.4008 278.222 76.252 278.925 75.9544 279.527C75.6602 280.129 75.2476 280.598 74.7166 280.933C74.189 281.267 73.5735 281.435 72.87 281.435ZM72.87 280.359C73.4044 280.359 73.844 280.222 74.189 279.948C74.534 279.674 74.7893 279.314 74.955 278.868C75.1207 278.421 75.2036 277.938 75.2036 277.417C75.2036 276.896 75.1207 276.411 74.955 275.961C74.7893 275.511 74.534 275.148 74.189 274.87C73.844 274.593 73.4044 274.454 72.87 274.454C72.3357 274.454 71.896 274.593 71.551 274.87C71.2061 275.148 70.9507 275.511 70.785 275.961C70.6193 276.411 70.5364 276.896 70.5364 277.417C70.5364 277.938 70.6193 278.421 70.785 278.868C70.9507 279.314 71.2061 279.674 71.551 279.948C71.896 280.222 72.3357 280.359 72.87 280.359ZM77.3964 283.505V280.156H78.0458C78.2047 279.991 78.3417 279.811 78.4567 279.619C78.5717 279.426 78.6714 279.198 78.756 278.934C78.8439 278.667 78.9183 278.342 78.9792 277.96C79.0401 277.574 79.0942 277.109 79.1415 276.565L79.4053 273.48H84.3566V280.156H85.5538V283.505H84.3566V281.272H78.5936V283.505H77.3964ZM79.4053 280.156H83.1594V274.596H80.5214L80.3185 276.565C80.2339 277.38 80.1291 278.092 80.0039 278.7C79.8788 279.309 79.6793 279.795 79.4053 280.156ZM88.3402 279.507L92.0942 273.48H93.4741V281.272H92.2768V275.246L88.5431 281.272H87.1429V273.48H88.3402V279.507Z" fill="#777575"/>
<path d="M6.9751 331.653L29.5602 331.426L52.1453 331.355L97.3037 331.2L142.474 331.355L165.059 331.426L187.644 331.653L165.059 331.867L142.474 331.95L97.3037 332.093L52.1453 331.938L29.5602 331.867L6.9751 331.653Z" fill="#EBEBEB"/>
<path d="M21.9598 314.68H23.4614L26.9922 323.304H27.114L30.6448 314.68H32.1464V325.069H30.9694V317.176H30.868L27.6213 325.069H26.4849L23.2382 317.176H23.1367V325.069H21.9598V314.68ZM34.5066 325.069V317.277H35.7038V325.069H34.5066ZM35.1154 315.978C34.882 315.978 34.6808 315.899 34.5117 315.74C34.346 315.581 34.2631 315.39 34.2631 315.167C34.2631 314.944 34.346 314.753 34.5117 314.594C34.6808 314.435 34.882 314.355 35.1154 314.355C35.3487 314.355 35.5483 314.435 35.714 314.594C35.8831 314.753 35.9676 314.944 35.9676 315.167C35.9676 315.39 35.8831 315.581 35.714 315.74C35.5483 315.899 35.3487 315.978 35.1154 315.978ZM43.1117 320.625V321.741H38.8098V320.625H43.1117ZM39.0939 317.277V325.069H37.8966V317.277H39.0939ZM44.0248 317.277V325.069H42.8276V317.277H44.0248ZM49.4783 325.232C48.7275 325.232 48.0799 325.066 47.5354 324.735C46.9942 324.4 46.5766 323.933 46.2823 323.334C45.9915 322.732 45.8461 322.032 45.8461 321.234C45.8461 320.436 45.9915 319.733 46.2823 319.124C46.5766 318.512 46.9858 318.035 47.51 317.693C48.0376 317.348 48.6531 317.176 49.3566 317.176C49.7624 317.176 50.1632 317.243 50.5589 317.379C50.9546 317.514 51.3148 317.734 51.6394 318.038C51.9641 318.339 52.2228 318.738 52.4156 319.235C52.6084 319.733 52.7048 320.345 52.7048 321.072V321.579H46.6983V320.544H51.4873C51.4873 320.105 51.3993 319.712 51.2235 319.367C51.051 319.022 50.8041 318.75 50.4828 318.551C50.1649 318.351 49.7895 318.251 49.3566 318.251C48.8797 318.251 48.4671 318.37 48.1188 318.606C47.7738 318.84 47.5083 319.144 47.3223 319.519C47.1363 319.895 47.0433 320.297 47.0433 320.727V321.417C47.0433 322.005 47.1447 322.504 47.3477 322.913C47.554 323.319 47.8398 323.629 48.205 323.842C48.5703 324.051 48.9947 324.156 49.4783 324.156C49.7929 324.156 50.077 324.112 50.3306 324.024C50.5876 323.933 50.8092 323.798 50.9952 323.618C51.1812 323.436 51.3249 323.209 51.4264 322.939L52.583 323.263C52.4613 323.656 52.2567 324.001 51.9692 324.298C51.6817 324.592 51.3266 324.822 50.9039 324.988C50.4811 325.151 50.0059 325.232 49.4783 325.232ZM54.526 327.991V317.277H55.6826V318.515H55.8247C55.9126 318.38 56.0344 318.207 56.1899 317.998C56.3489 317.784 56.5755 317.595 56.8697 317.429C57.1673 317.26 57.5698 317.176 58.0771 317.176C58.7332 317.176 59.3115 317.34 59.8121 317.668C60.3126 317.996 60.7032 318.461 60.9839 319.063C61.2646 319.665 61.405 320.375 61.405 321.194C61.405 322.019 61.2646 322.734 60.9839 323.339C60.7032 323.941 60.3143 324.408 59.8171 324.74C59.32 325.068 58.7467 325.232 58.0974 325.232C57.5969 325.232 57.1961 325.149 56.8951 324.983C56.5941 324.814 56.3624 324.623 56.2001 324.41C56.0377 324.193 55.9126 324.014 55.8247 323.872H55.7232V327.991H54.526ZM55.7029 321.173C55.7029 321.762 55.7892 322.281 55.9616 322.731C56.1341 323.177 56.3861 323.527 56.7175 323.781C57.049 324.031 57.4548 324.156 57.9351 324.156C58.4356 324.156 58.8533 324.024 59.1881 323.76C59.5263 323.493 59.7799 323.135 59.949 322.685C60.1215 322.232 60.2078 321.728 60.2078 321.173C60.2078 320.625 60.1232 320.132 59.9541 319.692C59.7884 319.249 59.5364 318.899 59.1982 318.642C58.8634 318.381 58.4424 318.251 57.9351 318.251C57.448 318.251 57.0388 318.375 56.7074 318.622C56.3759 318.865 56.1257 319.207 55.9566 319.646C55.7875 320.083 55.7029 320.592 55.7029 321.173ZM65.5243 325.252C65.0305 325.252 64.5824 325.159 64.1799 324.973C63.7775 324.784 63.4579 324.511 63.2211 324.156C62.9844 323.798 62.866 323.365 62.866 322.858C62.866 322.411 62.954 322.049 63.1298 321.772C63.3057 321.491 63.5407 321.271 63.835 321.112C64.1292 320.953 64.4539 320.835 64.809 320.757C65.1675 320.676 65.5277 320.612 65.8895 320.564C66.363 320.504 66.7469 320.458 67.0411 320.428C67.3387 320.394 67.5552 320.338 67.6905 320.26C67.8291 320.182 67.8985 320.047 67.8985 319.854V319.814C67.8985 319.313 67.7615 318.924 67.4875 318.647C67.217 318.37 66.8061 318.231 66.2548 318.231C65.6832 318.231 65.2351 318.356 64.9104 318.606C64.5858 318.857 64.3575 319.124 64.2256 319.408L63.0892 319.002C63.2922 318.529 63.5627 318.16 63.9009 317.896C64.2425 317.629 64.6145 317.443 65.017 317.338C65.4228 317.23 65.8219 317.176 66.2142 317.176C66.4645 317.176 66.752 317.206 67.0766 317.267C67.4047 317.325 67.7209 317.445 68.0253 317.627C68.333 317.81 68.5884 318.085 68.7913 318.454C68.9942 318.823 69.0957 319.317 69.0957 319.935V325.069H67.8985V324.014H67.8376C67.7564 324.183 67.6211 324.364 67.4317 324.557C67.2423 324.75 66.9904 324.914 66.6759 325.049C66.3613 325.184 65.9775 325.252 65.5243 325.252ZM65.7069 324.176C66.1804 324.176 66.5795 324.083 66.9041 323.897C67.2322 323.711 67.4791 323.471 67.6448 323.177C67.8139 322.883 67.8985 322.573 67.8985 322.249V321.153C67.8477 321.214 67.7361 321.27 67.5636 321.32C67.3945 321.368 67.1984 321.41 66.9752 321.447C66.7553 321.481 66.5406 321.511 66.3309 321.539C66.1246 321.562 65.9572 321.582 65.8287 321.599C65.5175 321.64 65.2267 321.706 64.9561 321.797C64.6889 321.885 64.4725 322.019 64.3068 322.198C64.1444 322.374 64.0633 322.614 64.0633 322.918C64.0633 323.334 64.2171 323.649 64.5249 323.862C64.836 324.072 65.23 324.176 65.7069 324.176ZM70.591 325.069V323.953H70.875C71.1084 323.953 71.3029 323.908 71.4584 323.816C71.614 323.722 71.7391 323.558 71.8338 323.324C71.9319 323.087 72.0063 322.759 72.0571 322.34C72.1112 321.917 72.1501 321.38 72.1737 320.727L72.3158 317.277H77.5105V325.069H76.3133V318.393H73.4521L73.3304 321.173C73.3033 321.812 73.2458 322.376 73.1579 322.863C73.0734 323.346 72.9431 323.752 72.7673 324.08C72.5948 324.408 72.3648 324.655 72.0774 324.821C71.7899 324.986 71.4297 325.069 70.9968 325.069H70.591ZM80.7421 320.098H82.9742C83.8873 320.098 84.5857 320.329 85.0693 320.793C85.553 321.256 85.7948 321.843 85.7948 322.553C85.7948 323.02 85.6866 323.444 85.4701 323.826C85.2537 324.205 84.9358 324.508 84.5164 324.735C84.097 324.958 83.5829 325.069 82.9742 325.069H79.7072V317.277H80.9044V323.953H82.9742C83.4477 323.953 83.8366 323.828 84.141 323.578C84.4454 323.328 84.5976 323.006 84.5976 322.614C84.5976 322.201 84.4454 321.865 84.141 321.604C83.8366 321.344 83.4477 321.214 82.9742 321.214H80.7421V320.098ZM92.8323 320.625V321.741H88.5304V320.625H92.8323ZM88.8145 317.277V325.069H87.6173V317.277H88.8145ZM93.7455 317.277V325.069H92.5482V317.277H93.7455ZM95.9319 325.069V317.277H97.1292V325.069H95.9319ZM96.5407 315.978C96.3073 315.978 96.1061 315.899 95.937 315.74C95.7713 315.581 95.6884 315.39 95.6884 315.167C95.6884 314.944 95.7713 314.753 95.937 314.594C96.1061 314.435 96.3073 314.355 96.5407 314.355C96.7741 314.355 96.9736 314.435 97.1393 314.594C97.3084 314.753 97.393 314.944 97.393 315.167C97.393 315.39 97.3084 315.581 97.1393 315.74C96.9736 315.899 96.7741 315.978 96.5407 315.978ZM106.505 325.232C105.775 325.232 105.146 325.059 104.618 324.714C104.091 324.369 103.685 323.894 103.401 323.289C103.117 322.683 102.975 321.992 102.975 321.214C102.975 320.422 103.12 319.724 103.411 319.119C103.705 318.51 104.114 318.035 104.638 317.693C105.166 317.348 105.782 317.176 106.485 317.176C107.033 317.176 107.527 317.277 107.966 317.48C108.406 317.683 108.766 317.967 109.047 318.332C109.328 318.698 109.502 319.124 109.569 319.611H108.372C108.281 319.256 108.078 318.941 107.763 318.667C107.452 318.39 107.033 318.251 106.505 318.251C106.039 318.251 105.629 318.373 105.278 318.616C104.929 318.857 104.657 319.196 104.461 319.636C104.268 320.072 104.172 320.585 104.172 321.173C104.172 321.775 104.266 322.299 104.456 322.746C104.649 323.192 104.919 323.539 105.268 323.786C105.619 324.033 106.032 324.156 106.505 324.156C106.817 324.156 107.099 324.102 107.353 323.994C107.606 323.886 107.821 323.73 107.997 323.527C108.173 323.324 108.298 323.081 108.372 322.797H109.569C109.502 323.257 109.334 323.671 109.067 324.04C108.803 324.405 108.453 324.696 108.017 324.912C107.584 325.125 107.08 325.232 106.505 325.232ZM114.485 325.232C113.782 325.232 113.165 325.064 112.634 324.729C112.106 324.395 111.693 323.926 111.396 323.324C111.102 322.722 110.954 322.019 110.954 321.214C110.954 320.402 111.102 319.694 111.396 319.088C111.693 318.483 112.106 318.013 112.634 317.678C113.165 317.343 113.782 317.176 114.485 317.176C115.189 317.176 115.804 317.343 116.332 317.678C116.863 318.013 117.275 318.483 117.57 319.088C117.867 319.694 118.016 320.402 118.016 321.214C118.016 322.019 117.867 322.722 117.57 323.324C117.275 323.926 116.863 324.395 116.332 324.729C115.804 325.064 115.189 325.232 114.485 325.232ZM114.485 324.156C115.02 324.156 115.459 324.019 115.804 323.745C116.149 323.471 116.405 323.111 116.57 322.665C116.736 322.218 116.819 321.735 116.819 321.214C116.819 320.693 116.736 320.208 116.57 319.758C116.405 319.308 116.149 318.945 115.804 318.667C115.459 318.39 115.02 318.251 114.485 318.251C113.951 318.251 113.511 318.39 113.166 318.667C112.821 318.945 112.566 319.308 112.4 319.758C112.234 320.208 112.152 320.693 112.152 321.214C112.152 321.735 112.234 322.218 112.4 322.665C112.566 323.111 112.821 323.471 113.166 323.745C113.511 324.019 113.951 324.156 114.485 324.156ZM119.154 325.069V323.953H119.438C119.671 323.953 119.866 323.908 120.021 323.816C120.177 323.722 120.302 323.558 120.397 323.324C120.495 323.087 120.569 322.759 120.62 322.34C120.674 321.917 120.713 321.38 120.736 320.727L120.878 317.277H126.073V325.069H124.876V318.393H122.015L121.893 321.173C121.866 321.812 121.809 322.376 121.721 322.863C121.636 323.346 121.506 323.752 121.33 324.08C121.158 324.408 120.928 324.655 120.64 324.821C120.353 324.986 119.992 325.069 119.56 325.069H119.154ZM128.27 325.069V317.277H129.467V325.069H128.27ZM128.879 315.978C128.645 315.978 128.444 315.899 128.275 315.74C128.109 315.581 128.026 315.39 128.026 315.167C128.026 314.944 128.109 314.753 128.275 314.594C128.444 314.435 128.645 314.355 128.879 314.355C129.112 314.355 129.312 314.435 129.477 314.594C129.646 314.753 129.731 314.944 129.731 315.167C129.731 315.39 129.646 315.581 129.477 315.74C129.312 315.899 129.112 315.978 128.879 315.978Z" fill="#777575"/>
<path d="M421.782 114H212.931C207.044 114 202.271 118.773 202.271 124.66V325.918C202.271 331.806 207.044 336.578 212.931 336.578H421.782C427.669 336.578 432.442 331.806 432.442 325.918V124.66C432.442 118.773 427.669 114 421.782 114Z" fill="#F9FAFC"/>
<path d="M370.815 146.484H265.45V148.904H370.815V146.484Z" fill="#5DBD6D"/>
<path d="M352.786 151.545H283.459V153.965H352.786V151.545Z" fill="#5DBD6D"/>
<path d="M349.682 205.194C347.441 206.471 344.949 207.2 342.395 207.325C339.841 207.449 337.294 206.967 334.948 205.914C332.602 204.86 330.519 203.265 328.858 201.248C327.198 199.232 326.004 196.848 325.368 194.28C324.732 191.712 324.671 189.026 325.189 186.43C325.707 183.833 326.791 181.393 328.358 179.298C329.925 177.202 331.932 175.506 334.228 174.339C336.524 173.172 339.046 172.565 341.603 172.564V189.954L349.682 205.194Z" fill="#263238"/>
<path d="M351.543 175.923L341.603 189.923V172.533C345.181 172.525 348.667 173.714 351.543 175.923Z" fill="#5DBD6D"/>
<path d="M358.368 189.925C358.375 194.293 356.787 198.501 353.924 201.704L341.603 189.925L351.543 175.925C353.661 177.538 355.382 179.646 356.568 182.079C357.754 184.511 358.371 187.199 358.368 189.925Z" fill="#A6A6A6"/>
<path d="M359.949 209.773C358.729 211.143 357.303 212.298 355.727 213.193L347.657 197.953L359.949 209.773Z" fill="#455A64"/>
<path d="M296.359 173.193L291.76 189.923V207.313C287.314 207.313 283.049 205.481 279.905 202.219C276.761 198.958 274.995 194.535 274.995 189.923C274.995 185.311 276.761 180.888 279.905 177.627C283.049 174.365 287.314 172.533 291.76 172.533C293.315 172.536 294.862 172.758 296.359 173.193Z" fill="#A6A6A6"/>
<path d="M301.681 203.924C298.811 206.129 295.332 207.318 291.76 207.314V189.924L301.681 203.924Z" fill="#263238"/>
<path d="M308.487 189.924C308.49 192.651 307.873 195.34 306.685 197.772C305.497 200.205 303.773 202.313 301.652 203.924L291.731 189.924L304.766 178.994C307.183 182.084 308.497 185.945 308.487 189.924Z" fill="#455A64"/>
<path d="M308.487 173.363L295.482 184.293L300.09 167.563C303.397 168.556 306.329 170.581 308.487 173.363Z" fill="#5DBD6D"/>
<path d="M241.908 172.533V189.923L230.618 202.773C228.12 200.41 226.368 197.319 225.594 193.905C224.82 190.491 225.059 186.914 226.28 183.643C227.501 180.373 229.647 177.562 232.436 175.579C235.225 173.596 238.526 172.535 241.908 172.533Z" fill="#455A64"/>
<path d="M253.911 177.783L241.908 189.923V172.533C244.145 172.531 246.361 172.994 248.422 173.896C250.484 174.797 252.35 176.119 253.911 177.783Z" fill="#5DBD6D"/>
<path d="M258.672 189.924C258.675 192.505 258.121 195.054 257.052 197.384C255.983 199.715 254.425 201.768 252.493 203.394L241.888 189.924L253.891 177.784C256.953 181.027 258.67 185.385 258.672 189.924Z" fill="#A6A6A6"/>
<path d="M252.493 207.953C249.38 210.585 245.459 211.969 241.445 211.856C237.43 211.742 233.588 210.137 230.618 207.333L241.908 194.483L252.493 207.953Z" fill="#263238"/>
<path d="M391.455 172.533V207.313C387.009 207.313 382.745 205.481 379.6 202.219C376.456 198.958 374.69 194.535 374.69 189.923C374.69 185.311 376.456 180.888 379.6 177.627C382.745 174.365 387.009 172.533 391.455 172.533Z" fill="#5DBD6D"/>
<path d="M395.688 173.093L391.456 189.923V172.533C392.883 172.534 394.305 172.723 395.688 173.093Z" fill="#263238"/>
<path d="M411.113 188.925C411.114 191.105 410.719 193.266 409.946 195.294L394.348 188.925L398.58 172.095C402.169 173.068 405.346 175.247 407.614 178.293C409.881 181.338 411.112 185.077 411.113 188.925Z" fill="#455A64"/>
<path d="M407.054 196.294C405.816 199.537 403.667 202.32 400.886 204.281C398.104 206.243 394.819 207.292 391.456 207.294V189.924L407.054 196.294Z" fill="#A6A6A6"/>
<path d="M253.746 217.533H234.175V219.483H253.746V217.533Z" fill="#5DBD6D"/>
<path d="M247.161 221.604H234.175V223.553H247.161V221.604Z" fill="#5DBD6D"/>
<path d="M231.004 217.514H225.142V223.594H231.004V217.514Z" fill="#455A64"/>
<path d="M303.599 217.533H284.028V219.483H303.599V217.533Z" fill="#5DBD6D"/>
<path d="M297.015 221.604H284.028V223.553H297.015V221.604Z" fill="#5DBD6D"/>
<path d="M280.856 217.514H274.995V223.594H280.856V217.514Z" fill="#A6A6A6"/>
<path d="M353.452 217.533H333.881V219.483H353.452V217.533Z" fill="#5DBD6D"/>
<path d="M346.867 221.604H333.881V223.553H346.867V221.604Z" fill="#5DBD6D"/>
<path d="M330.709 217.514H324.847V223.594H330.709V217.514Z" fill="#263238"/>
<path d="M403.304 217.533H383.733V219.483H403.304V217.533Z" fill="#5DBD6D"/>
<path d="M396.72 221.604H383.733V223.553H396.72V221.604Z" fill="#5DBD6D"/>
<path d="M380.561 217.514H374.7V223.594H380.561V217.514Z" fill="#5DBD6D"/>
<path d="M223.85 241.964L269.162 241.844C284.259 241.844 299.367 241.844 314.474 241.964C299.376 242.074 284.269 242.044 269.162 242.094L223.85 241.964Z" fill="#5DBD6D"/>
<path d="M223.85 245.793L269.162 245.673C284.259 245.673 299.367 245.673 314.474 245.793C299.376 245.903 284.269 245.883 269.162 245.923L223.85 245.793Z" fill="#5DBD6D"/>
<path d="M223.85 249.633L269.162 249.503C284.259 249.553 299.367 249.503 314.474 249.633C299.376 249.733 284.269 249.713 269.162 249.753L223.85 249.633Z" fill="#5DBD6D"/>
<path d="M223.85 253.463L269.162 253.333C284.259 253.383 299.367 253.333 314.474 253.463C299.376 253.573 284.269 253.543 269.162 253.583L223.85 253.463Z" fill="#5DBD6D"/>
<path d="M223.85 257.293L269.162 257.173C284.259 257.173 299.367 257.173 314.474 257.293C299.376 257.403 284.269 257.373 269.162 257.423L223.85 257.293Z" fill="#5DBD6D"/>
<path d="M223.85 261.123L269.162 261.003C284.259 261.003 299.367 261.003 314.474 261.123C299.376 261.233 284.269 261.213 269.162 261.253L223.85 261.123Z" fill="#5DBD6D"/>
<path d="M223.85 264.962L269.162 264.832C284.259 264.882 299.367 264.832 314.474 264.962C299.376 265.062 284.269 265.042 269.162 265.082L223.85 264.962Z" fill="#5DBD6D"/>
<path d="M223.85 268.793L269.162 268.663C284.259 268.713 299.367 268.663 314.474 268.793C299.376 268.903 284.269 268.873 269.162 268.913L223.85 268.793Z" fill="#5DBD6D"/>
<path d="M223.85 272.624L269.162 272.504C284.259 272.504 299.367 272.504 314.474 272.624C299.376 272.734 284.269 272.704 269.162 272.754L223.85 272.624Z" fill="#5DBD6D"/>
<path d="M223.85 276.453L269.162 276.333C284.259 276.333 299.367 276.333 314.474 276.453C299.376 276.563 284.269 276.543 269.162 276.583L223.85 276.453Z" fill="#5DBD6D"/>
<path d="M223.85 280.293L269.162 280.163C284.259 280.213 299.367 280.163 314.474 280.293C299.376 280.393 284.269 280.373 269.162 280.413L223.85 280.293Z" fill="#5DBD6D"/>
<path d="M223.85 284.123L269.162 283.993C284.259 283.993 299.367 283.993 314.474 284.123C299.376 284.233 284.269 284.203 269.162 284.243L223.85 284.123Z" fill="#5DBD6D"/>
<path d="M223.85 287.953L269.162 287.833C284.259 287.833 299.367 287.833 314.474 287.953C299.376 288.063 284.269 288.033 269.162 288.083L223.85 287.953Z" fill="#5DBD6D"/>
<path d="M223.85 291.783L269.162 291.663C284.259 291.663 299.367 291.663 314.474 291.783C299.376 291.893 284.269 291.873 269.162 291.913L223.85 291.783Z" fill="#5DBD6D"/>
<path d="M223.85 295.623L269.162 295.493C284.259 295.493 299.367 295.493 314.474 295.623C299.376 295.723 284.269 295.703 269.162 295.743L223.85 295.623Z" fill="#5DBD6D"/>
<path d="M240.307 268.793H233.433V300.093H240.307V268.793Z" fill="#5DBD6D"/>
<path d="M253.053 255.553H246.179V300.082H253.053V255.553Z" fill="#455A64"/>
<path d="M265.798 265.093H258.924V300.092H265.798V265.093Z" fill="#A6A6A6"/>
<path d="M278.542 253.463H271.668V300.092H278.542V253.463Z" fill="#5DBD6D"/>
<path d="M291.287 259.713H284.414V300.082H291.287V259.713Z" fill="#455A64"/>
<path d="M304.033 282.593H297.159V300.093H304.033V282.593Z" fill="#A6A6A6"/>
<path d="M226.309 239.273L226.492 254.483L226.627 269.683C226.714 279.813 226.733 289.953 226.753 300.083L226.309 299.623H248.348L270.387 299.683L292.416 299.833L314.455 300.113L292.416 300.383L270.387 300.533L248.348 300.593H226.309H225.856V300.123C225.856 289.996 225.898 279.863 225.981 269.723L226.107 254.523L226.309 239.273Z" fill="#5DBD6D"/>
<path d="M240.307 303.303H233.433V303.943H240.307V303.303Z" fill="#5DBD6D"/>
<path d="M253.053 303.303H246.179V303.943H253.053V303.303Z" fill="#5DBD6D"/>
<path d="M265.798 303.303H258.924V303.943H265.798V303.303Z" fill="#5DBD6D"/>
<path d="M278.542 303.303H271.668V303.943H278.542V303.303Z" fill="#5DBD6D"/>
<path d="M291.287 303.303H284.414V303.943H291.287V303.303Z" fill="#5DBD6D"/>
<path d="M304.033 303.303H297.159V303.943H304.033V303.303Z" fill="#5DBD6D"/>
<path d="M410.563 256.103H334.931V264.622H410.563V256.103Z" fill="#F0F0F0"/>
<path d="M370.921 258.523H337.67V262.213H370.921V258.523Z" fill="#455A64"/>
<path d="M324.337 260.634C324.351 260.899 324.263 261.159 324.092 261.357C323.921 261.555 323.681 261.674 323.425 261.689C323.17 261.703 322.919 261.612 322.728 261.435C322.538 261.257 322.422 261.009 322.408 260.744C322.404 260.664 322.404 260.584 322.408 260.504C322.406 260.218 322.452 259.933 322.543 259.664C322.64 259.381 322.818 259.137 323.054 258.964C323.231 258.847 323.434 258.782 323.642 258.774C323.672 258.772 323.701 258.777 323.728 258.787C323.755 258.798 323.781 258.813 323.802 258.834C323.824 258.854 323.841 258.879 323.853 258.906C323.866 258.934 323.873 258.963 323.874 258.994C323.874 259.054 323.852 259.112 323.813 259.157C323.774 259.201 323.72 259.229 323.662 259.234C323.532 259.231 323.404 259.269 323.295 259.344C323.188 259.415 323.102 259.516 323.045 259.634L322.987 259.734C323.109 259.681 323.24 259.654 323.372 259.654C323.625 259.654 323.867 259.756 324.047 259.939C324.228 260.123 324.332 260.372 324.337 260.634ZM323.903 260.634C323.903 260.49 323.848 260.353 323.75 260.252C323.653 260.151 323.52 260.094 323.382 260.094C323.244 260.094 323.112 260.151 323.014 260.252C322.916 260.353 322.862 260.49 322.862 260.634C322.862 260.777 322.916 260.914 323.014 261.015C323.112 261.117 323.244 261.174 323.382 261.174C323.52 261.174 323.653 261.117 323.75 261.015C323.848 260.914 323.903 260.777 323.903 260.634Z" fill="#263238"/>
<path d="M324.953 260.193C324.947 259.839 325.041 259.491 325.223 259.193C325.296 259.057 325.402 258.945 325.531 258.866C325.66 258.787 325.807 258.746 325.956 258.746C326.106 258.746 326.252 258.787 326.381 258.866C326.51 258.945 326.616 259.057 326.689 259.193C326.873 259.49 326.964 259.839 326.949 260.193C326.963 260.546 326.872 260.895 326.689 261.193C326.616 261.328 326.51 261.441 326.381 261.519C326.252 261.598 326.106 261.639 325.956 261.639C325.807 261.639 325.66 261.598 325.531 261.519C325.402 261.441 325.296 261.328 325.223 261.193C325.042 260.894 324.948 260.546 324.953 260.193ZM326.515 260.193C326.522 259.935 326.455 259.681 326.322 259.463C326.285 259.393 326.233 259.334 326.169 259.291C326.105 259.247 326.032 259.221 325.956 259.213C325.879 259.221 325.805 259.248 325.74 259.292C325.675 259.335 325.62 259.394 325.58 259.463C325.456 259.684 325.392 259.937 325.397 260.193C325.394 260.449 325.457 260.701 325.58 260.923C325.62 260.992 325.675 261.05 325.74 261.093C325.805 261.137 325.879 261.164 325.956 261.173C326.032 261.165 326.105 261.138 326.169 261.094C326.233 261.051 326.285 260.992 326.322 260.923C326.453 260.704 326.52 260.45 326.515 260.193Z" fill="#263238"/>
<path d="M327.768 259.462C327.757 259.367 327.766 259.27 327.793 259.178C327.821 259.086 327.867 259.001 327.928 258.929C327.99 258.857 328.066 258.8 328.15 258.76C328.235 258.721 328.326 258.7 328.419 258.7C328.512 258.7 328.604 258.721 328.688 258.76C328.773 258.8 328.849 258.857 328.91 258.929C328.972 259.001 329.018 259.086 329.045 259.178C329.073 259.27 329.081 259.367 329.07 259.462C329.075 259.556 329.062 259.649 329.032 259.737C329.001 259.824 328.954 259.905 328.893 259.973C328.831 260.041 328.757 260.096 328.675 260.133C328.593 260.171 328.504 260.191 328.414 260.192C328.325 260.191 328.237 260.171 328.155 260.133C328.073 260.096 328 260.041 327.939 259.972C327.879 259.904 327.832 259.823 327.803 259.736C327.774 259.648 327.762 259.555 327.768 259.462ZM328.733 259.462C328.744 259.365 328.718 259.266 328.66 259.188C328.603 259.109 328.518 259.057 328.424 259.043C328.241 259.043 328.125 259.232 328.125 259.452C328.125 259.682 328.251 259.862 328.434 259.862C328.617 259.862 328.675 259.692 328.675 259.462H328.733ZM328.231 261.382L330.044 258.812C330.058 258.789 330.078 258.77 330.102 258.758C330.126 258.745 330.152 258.74 330.179 258.743C330.22 258.743 330.259 258.759 330.288 258.789C330.317 258.819 330.333 258.86 330.333 258.903C330.343 258.935 330.343 258.97 330.333 259.002L328.52 261.572C328.504 261.595 328.482 261.614 328.456 261.626C328.431 261.638 328.404 261.644 328.376 261.642C328.335 261.642 328.296 261.626 328.267 261.596C328.238 261.566 328.222 261.525 328.222 261.482C328.196 261.455 328.179 261.42 328.173 261.382H328.231ZM329.446 260.932C329.441 260.839 329.454 260.746 329.484 260.658C329.515 260.571 329.562 260.49 329.623 260.422C329.685 260.354 329.759 260.299 329.841 260.262C329.923 260.224 330.012 260.204 330.102 260.202C330.191 260.204 330.279 260.224 330.361 260.262C330.443 260.299 330.516 260.354 330.577 260.423C330.637 260.491 330.684 260.572 330.713 260.659C330.742 260.747 330.754 260.84 330.747 260.932C330.759 261.028 330.75 261.125 330.723 261.217C330.695 261.309 330.649 261.394 330.588 261.466C330.526 261.538 330.45 261.595 330.366 261.635C330.281 261.674 330.19 261.695 330.097 261.695C330.004 261.695 329.912 261.674 329.828 261.635C329.743 261.595 329.667 261.538 329.606 261.466C329.544 261.394 329.498 261.309 329.471 261.217C329.443 261.125 329.435 261.028 329.446 260.932ZM330.41 260.932C330.41 260.702 330.285 260.522 330.102 260.522C329.918 260.522 329.812 260.702 329.812 260.932C329.812 261.172 329.938 261.352 330.111 261.352C330.285 261.352 330.343 261.192 330.343 260.932H330.41Z" fill="#263238"/>
<path d="M410.563 243.593H334.931V252.113H410.563V243.593Z" fill="#F0F0F0"/>
<path d="M354.069 246.014H337.67V249.704H354.069V246.014Z" fill="#5DBD6D"/>
<path d="M323.912 247.373C324.005 247.466 324.079 247.578 324.13 247.702C324.181 247.826 324.207 247.959 324.207 248.093C324.207 248.228 324.181 248.361 324.13 248.484C324.079 248.608 324.005 248.72 323.912 248.813C323.821 248.909 323.713 248.985 323.594 249.036C323.475 249.088 323.347 249.114 323.218 249.113C323.09 249.113 322.964 249.086 322.846 249.034C322.729 248.983 322.622 248.908 322.533 248.813C322.492 248.769 322.47 248.71 322.47 248.648C322.47 248.587 322.492 248.528 322.533 248.483C322.553 248.461 322.577 248.444 322.603 248.432C322.63 248.42 322.658 248.414 322.687 248.414C322.716 248.414 322.745 248.42 322.771 248.432C322.798 248.444 322.822 248.461 322.842 248.483C322.891 248.535 322.949 248.575 323.014 248.603C323.078 248.63 323.148 248.644 323.218 248.643C323.289 248.645 323.36 248.631 323.426 248.604C323.492 248.576 323.553 248.535 323.603 248.483C323.653 248.432 323.692 248.371 323.719 248.304C323.745 248.237 323.758 248.166 323.757 248.093C323.76 248.02 323.748 247.948 323.721 247.881C323.694 247.814 323.654 247.753 323.603 247.703C323.554 247.652 323.495 247.611 323.431 247.584C323.366 247.556 323.297 247.542 323.227 247.543C323.196 247.544 323.165 247.537 323.136 247.523C323.108 247.509 323.083 247.489 323.063 247.463C323.042 247.442 323.025 247.416 323.014 247.388C323.002 247.359 322.996 247.329 322.996 247.298C322.996 247.267 323.002 247.237 323.014 247.209C323.025 247.18 323.042 247.155 323.063 247.133L323.468 246.703H322.822C322.763 246.703 322.707 246.679 322.666 246.636C322.624 246.593 322.601 246.534 322.601 246.473C322.601 246.412 322.624 246.354 322.666 246.311C322.707 246.267 322.763 246.243 322.822 246.243H323.989C324.048 246.243 324.104 246.267 324.146 246.311C324.187 246.354 324.211 246.412 324.211 246.473C324.22 246.509 324.22 246.547 324.211 246.583C324.213 246.603 324.213 246.623 324.211 246.643L323.719 247.173C323.793 247.229 323.858 247.296 323.912 247.373Z" fill="#263238"/>
<path d="M324.876 247.684C324.865 247.33 324.959 246.981 325.146 246.684C325.217 246.546 325.322 246.43 325.451 246.35C325.581 246.269 325.728 246.227 325.879 246.227C326.03 246.227 326.178 246.269 326.307 246.35C326.436 246.43 326.541 246.546 326.612 246.684C326.792 246.984 326.882 247.331 326.872 247.684C326.879 248.036 326.789 248.383 326.612 248.684C326.539 248.819 326.433 248.932 326.304 249.011C326.175 249.089 326.028 249.131 325.879 249.131C325.73 249.131 325.583 249.089 325.454 249.011C325.325 248.932 325.219 248.819 325.146 248.684C324.961 248.386 324.867 248.038 324.876 247.684ZM326.438 247.684C326.445 247.426 326.378 247.172 326.245 246.954C326.13 246.784 326.004 246.694 325.879 246.704C325.801 246.709 325.726 246.735 325.66 246.779C325.594 246.823 325.54 246.883 325.503 246.954C325.379 247.175 325.315 247.428 325.32 247.684C325.315 247.937 325.379 248.186 325.503 248.404C325.54 248.477 325.593 248.538 325.659 248.584C325.725 248.629 325.8 248.657 325.879 248.664C325.956 248.656 326.03 248.628 326.094 248.583C326.158 248.537 326.21 248.476 326.245 248.404C326.361 248.184 326.411 247.934 326.39 247.684H326.438Z" fill="#263238"/>
<path d="M327.595 246.954C327.584 246.858 327.592 246.761 327.62 246.669C327.647 246.577 327.694 246.493 327.755 246.421C327.817 246.349 327.892 246.291 327.977 246.251C328.061 246.212 328.153 246.191 328.246 246.191C328.339 246.191 328.43 246.212 328.515 246.251C328.6 246.291 328.675 246.349 328.737 246.421C328.798 246.493 328.844 246.577 328.872 246.669C328.899 246.761 328.908 246.858 328.897 246.954C328.902 247.047 328.889 247.14 328.858 247.228C328.828 247.315 328.781 247.396 328.719 247.464C328.658 247.532 328.584 247.587 328.502 247.625C328.42 247.662 328.331 247.683 328.241 247.684C328.152 247.683 328.063 247.662 327.982 247.625C327.9 247.587 327.826 247.532 327.766 247.464C327.705 247.395 327.659 247.315 327.63 247.227C327.6 247.139 327.589 247.046 327.595 246.954ZM328.559 246.954C328.559 246.724 328.434 246.534 328.26 246.534C328.087 246.534 327.962 246.724 327.962 246.944C327.962 247.174 328.087 247.354 328.27 247.354C328.453 247.354 328.54 247.194 328.54 246.954H328.559ZM328.068 248.874L329.88 246.304C329.894 246.279 329.913 246.259 329.937 246.245C329.961 246.231 329.988 246.223 330.015 246.224C330.056 246.224 330.095 246.241 330.124 246.271C330.153 246.301 330.169 246.341 330.169 246.384C330.183 246.419 330.183 246.458 330.169 246.494L328.357 249.064C328.343 249.087 328.323 249.106 328.299 249.118C328.275 249.131 328.248 249.136 328.222 249.134C328.202 249.134 328.181 249.13 328.163 249.122C328.144 249.113 328.127 249.102 328.113 249.087C328.098 249.072 328.087 249.054 328.079 249.035C328.072 249.015 328.068 248.995 328.068 248.974C328.05 248.944 328.043 248.908 328.048 248.874H328.068ZM329.282 248.424C329.271 248.328 329.28 248.231 329.307 248.139C329.335 248.047 329.381 247.963 329.442 247.891C329.504 247.819 329.579 247.761 329.664 247.721C329.749 247.682 329.84 247.661 329.933 247.661C330.026 247.661 330.118 247.682 330.202 247.721C330.287 247.761 330.362 247.819 330.424 247.891C330.485 247.963 330.531 248.047 330.559 248.139C330.587 248.231 330.595 248.328 330.584 248.424C330.595 248.519 330.587 248.616 330.559 248.708C330.531 248.8 330.485 248.885 330.424 248.957C330.362 249.029 330.287 249.087 330.202 249.126C330.118 249.166 330.026 249.186 329.933 249.186C329.84 249.186 329.749 249.166 329.664 249.126C329.579 249.087 329.504 249.029 329.442 248.957C329.381 248.885 329.335 248.8 329.307 248.708C329.28 248.616 329.271 248.519 329.282 248.424ZM330.246 248.424C330.246 248.194 330.121 248.004 329.938 248.004C329.755 248.004 329.639 248.194 329.639 248.414C329.628 248.512 329.654 248.61 329.711 248.688C329.769 248.767 329.854 248.819 329.948 248.834C330.102 248.834 330.217 248.644 330.217 248.424H330.246Z" fill="#263238"/>
<path d="M410.563 293.643H334.931V302.162H410.563V293.643Z" fill="#F0F0F0"/>
<path d="M394.416 296.063H337.67V299.753H394.416V296.063Z" fill="#5DBD6D"/>
<path d="M322.427 297.283C322.421 297.151 322.44 297.02 322.482 296.896C322.525 296.772 322.591 296.658 322.676 296.561C322.761 296.463 322.864 296.384 322.978 296.328C323.093 296.272 323.217 296.239 323.343 296.233C323.599 296.219 323.849 296.312 324.039 296.49C324.133 296.578 324.21 296.685 324.264 296.804C324.318 296.923 324.349 297.051 324.356 297.183C324.36 297.259 324.36 297.336 324.356 297.413C324.359 297.699 324.313 297.983 324.221 298.253C324.127 298.537 323.948 298.782 323.71 298.953C323.536 299.076 323.332 299.146 323.122 299.153C323.063 299.153 323.006 299.128 322.965 299.085C322.923 299.042 322.9 298.984 322.9 298.923C322.9 298.862 322.923 298.803 322.965 298.76C323.006 298.717 323.063 298.693 323.122 298.693C323.251 298.691 323.378 298.653 323.488 298.583C323.593 298.509 323.679 298.409 323.739 298.293C323.76 298.259 323.777 298.222 323.787 298.183C323.67 298.244 323.541 298.275 323.411 298.273C323.283 298.275 323.157 298.252 323.038 298.203C322.92 298.155 322.811 298.083 322.72 297.99C322.629 297.898 322.556 297.788 322.505 297.667C322.455 297.545 322.429 297.415 322.427 297.283ZM322.861 297.283C322.861 297.426 322.916 297.563 323.014 297.665C323.111 297.766 323.244 297.823 323.382 297.823C323.52 297.823 323.652 297.766 323.75 297.665C323.848 297.563 323.903 297.426 323.903 297.283C323.903 297.139 323.848 297.002 323.75 296.901C323.652 296.8 323.52 296.743 323.382 296.743C323.244 296.743 323.111 296.8 323.014 296.901C322.916 297.002 322.861 297.139 322.861 297.283Z" fill="#263238"/>
<path d="M324.953 297.732C324.947 297.378 325.041 297.03 325.223 296.732C325.294 296.594 325.399 296.478 325.529 296.398C325.658 296.317 325.805 296.274 325.956 296.274C326.107 296.274 326.255 296.317 326.384 296.398C326.513 296.478 326.618 296.594 326.689 296.732C326.873 297.029 326.964 297.379 326.949 297.732C326.961 298.085 326.87 298.433 326.689 298.732C326.616 298.867 326.51 298.98 326.381 299.059C326.252 299.137 326.106 299.178 325.956 299.178C325.807 299.178 325.66 299.137 325.531 299.059C325.402 298.98 325.296 298.867 325.223 298.732C325.043 298.432 324.95 298.085 324.953 297.732ZM326.515 297.732C326.523 297.474 326.456 297.22 326.322 297.002C326.207 296.832 326.081 296.742 325.956 296.752C325.831 296.762 325.705 296.832 325.58 297.002C325.46 297.223 325.397 297.473 325.397 297.727C325.397 297.981 325.46 298.231 325.58 298.452C325.618 298.523 325.672 298.584 325.738 298.629C325.803 298.675 325.878 298.703 325.956 298.712C326.033 298.704 326.107 298.676 326.171 298.63C326.235 298.585 326.287 298.524 326.322 298.452C326.454 298.237 326.521 297.986 326.515 297.732Z" fill="#263238"/>
<path d="M327.768 297.003C327.757 296.907 327.766 296.81 327.793 296.718C327.821 296.626 327.867 296.542 327.928 296.469C327.99 296.397 328.066 296.34 328.15 296.3C328.235 296.261 328.326 296.24 328.419 296.24C328.512 296.24 328.604 296.261 328.688 296.3C328.773 296.34 328.849 296.397 328.91 296.469C328.972 296.542 329.018 296.626 329.045 296.718C329.073 296.81 329.081 296.907 329.07 297.003C329.081 297.098 329.073 297.195 329.045 297.287C329.018 297.379 328.972 297.464 328.91 297.536C328.849 297.608 328.773 297.665 328.688 297.705C328.604 297.744 328.512 297.765 328.419 297.765C328.326 297.765 328.235 297.744 328.15 297.705C328.066 297.665 327.99 297.608 327.928 297.536C327.867 297.464 327.821 297.379 327.793 297.287C327.766 297.195 327.757 297.098 327.768 297.003ZM328.733 297.003C328.743 296.906 328.717 296.809 328.659 296.732C328.602 296.655 328.517 296.605 328.424 296.593C328.241 296.593 328.125 296.773 328.125 297.003C328.125 297.243 328.251 297.423 328.434 297.423C328.617 297.423 328.675 297.193 328.675 297.003H328.733ZM328.231 298.913L330.044 296.353C330.057 296.328 330.077 296.308 330.101 296.294C330.124 296.28 330.151 296.272 330.179 296.273C330.22 296.273 330.259 296.289 330.288 296.319C330.317 296.349 330.333 296.39 330.333 296.433C330.343 296.468 330.343 296.507 330.333 296.543L328.52 299.113C328.504 299.135 328.482 299.154 328.456 299.166C328.431 299.178 328.404 299.184 328.376 299.183C328.335 299.183 328.296 299.166 328.267 299.136C328.238 299.106 328.222 299.065 328.222 299.023C328.195 298.992 328.179 298.953 328.173 298.913H328.231ZM329.446 298.473C329.441 298.379 329.454 298.286 329.484 298.199C329.515 298.111 329.562 298.03 329.623 297.962C329.685 297.894 329.759 297.839 329.841 297.802C329.923 297.764 330.012 297.744 330.102 297.743C330.19 297.744 330.278 297.764 330.359 297.801C330.44 297.838 330.513 297.892 330.573 297.959C330.633 298.027 330.68 298.106 330.71 298.192C330.74 298.279 330.753 298.371 330.747 298.463C330.759 298.558 330.75 298.655 330.723 298.747C330.695 298.839 330.649 298.924 330.588 298.996C330.526 299.068 330.45 299.125 330.366 299.165C330.281 299.204 330.19 299.225 330.097 299.225C330.004 299.225 329.912 299.204 329.828 299.165C329.743 299.125 329.667 299.068 329.606 298.996C329.544 298.924 329.498 298.839 329.471 298.747C329.443 298.655 329.435 298.558 329.446 298.463V298.473ZM330.41 298.473C330.41 298.243 330.285 298.053 330.102 298.053C329.918 298.053 329.812 298.243 329.812 298.463C329.812 298.693 329.938 298.883 330.111 298.883C330.285 298.883 330.343 298.693 330.343 298.473H330.41Z" fill="#263238"/>
<path d="M410.563 281.134H334.931V289.654H410.563V281.134Z" fill="#F0F0F0"/>
<path d="M388.67 283.543H337.67V287.233H388.67V283.543Z" fill="#455A64"/>
<path d="M324.268 285.672C324.268 285.938 324.167 286.192 323.986 286.38C323.805 286.567 323.56 286.672 323.304 286.672C323.049 286.672 322.804 286.567 322.623 286.38C322.442 286.192 322.34 285.938 322.34 285.672C322.343 285.512 322.383 285.355 322.457 285.214C322.531 285.073 322.636 284.952 322.765 284.862C322.676 284.745 322.629 284.601 322.63 284.452C322.63 284.272 322.699 284.099 322.822 283.972C322.945 283.844 323.111 283.772 323.285 283.772C323.459 283.772 323.626 283.844 323.749 283.972C323.872 284.099 323.941 284.272 323.941 284.452C323.941 284.601 323.894 284.745 323.806 284.862C323.941 284.948 324.054 285.066 324.135 285.207C324.215 285.349 324.261 285.508 324.268 285.672ZM323.835 285.672C323.835 285.568 323.805 285.465 323.749 285.378C323.692 285.291 323.613 285.223 323.519 285.183C323.426 285.143 323.323 285.132 323.224 285.153C323.125 285.173 323.034 285.224 322.962 285.298C322.891 285.372 322.842 285.466 322.823 285.569C322.803 285.672 322.813 285.778 322.852 285.875C322.89 285.972 322.956 286.055 323.04 286.113C323.124 286.171 323.223 286.202 323.324 286.202C323.459 286.202 323.589 286.147 323.685 286.047C323.781 285.948 323.835 285.813 323.835 285.672ZM323.102 284.452C323.1 284.498 323.111 284.544 323.135 284.583C323.158 284.622 323.192 284.653 323.232 284.672C323.272 284.691 323.317 284.697 323.361 284.689C323.404 284.681 323.445 284.66 323.477 284.629C323.509 284.597 323.531 284.556 323.54 284.511C323.55 284.466 323.546 284.42 323.529 284.377C323.513 284.334 323.484 284.298 323.448 284.272C323.411 284.246 323.368 284.232 323.324 284.232C323.267 284.232 323.212 284.255 323.17 284.296C323.129 284.337 323.104 284.393 323.102 284.452Z" fill="#263238"/>
<path d="M324.876 285.193C324.872 284.839 324.966 284.492 325.146 284.193C325.218 284.057 325.325 283.945 325.454 283.866C325.582 283.787 325.729 283.746 325.878 283.746C326.028 283.746 326.175 283.787 326.303 283.866C326.432 283.945 326.538 284.057 326.611 284.193C326.796 284.49 326.89 284.839 326.881 285.193C326.893 285.547 326.798 285.896 326.611 286.193C326.541 286.331 326.435 286.446 326.306 286.527C326.177 286.608 326.029 286.65 325.878 286.65C325.728 286.65 325.58 286.608 325.451 286.527C325.322 286.446 325.216 286.331 325.146 286.193C324.963 285.894 324.869 285.546 324.876 285.193ZM326.438 285.193C326.442 284.935 326.375 284.682 326.245 284.463C326.209 284.392 326.157 284.332 326.093 284.289C326.029 284.245 325.955 284.219 325.878 284.213C325.802 284.222 325.728 284.249 325.663 284.293C325.598 284.336 325.543 284.394 325.502 284.463C325.38 284.685 325.316 284.937 325.319 285.193C325.315 285.449 325.378 285.701 325.502 285.923C325.543 285.991 325.598 286.049 325.663 286.093C325.728 286.136 325.802 286.163 325.878 286.173C325.955 286.167 326.029 286.14 326.093 286.097C326.157 286.053 326.209 285.993 326.245 285.923C326.387 285.708 326.464 285.453 326.467 285.193H326.438Z" fill="#263238"/>
<path d="M327.672 284.492C327.661 284.396 327.669 284.299 327.697 284.207C327.724 284.116 327.77 284.031 327.832 283.959C327.893 283.887 327.969 283.829 328.053 283.789C328.138 283.75 328.23 283.729 328.323 283.729C328.415 283.729 328.507 283.75 328.592 283.789C328.676 283.829 328.752 283.887 328.813 283.959C328.875 284.031 328.921 284.116 328.949 284.207C328.976 284.299 328.985 284.396 328.973 284.492C328.985 284.587 328.976 284.684 328.949 284.776C328.921 284.868 328.875 284.953 328.813 285.025C328.752 285.097 328.676 285.155 328.592 285.194C328.507 285.234 328.415 285.254 328.323 285.254C328.23 285.254 328.138 285.234 328.053 285.194C327.969 285.155 327.893 285.097 327.832 285.025C327.77 284.953 327.724 284.868 327.697 284.776C327.669 284.684 327.661 284.587 327.672 284.492ZM328.636 284.492C328.636 284.262 328.511 284.072 328.327 284.072C328.144 284.072 328.029 284.262 328.029 284.482C328.029 284.712 328.154 284.902 328.337 284.902C328.52 284.902 328.626 284.712 328.626 284.492H328.636ZM328.135 286.402L329.947 283.832C329.961 283.808 329.981 283.789 330.005 283.777C330.029 283.765 330.055 283.759 330.082 283.762C330.102 283.762 330.122 283.766 330.141 283.774C330.16 283.782 330.177 283.794 330.191 283.809C330.205 283.824 330.217 283.841 330.225 283.861C330.232 283.88 330.236 283.901 330.236 283.922C330.246 283.958 330.246 283.996 330.236 284.032L328.424 286.592C328.407 286.616 328.386 286.636 328.361 286.649C328.335 286.663 328.308 286.671 328.279 286.672C328.259 286.672 328.239 286.668 328.22 286.66C328.201 286.652 328.184 286.64 328.17 286.625C328.156 286.61 328.144 286.592 328.137 286.573C328.129 286.554 328.125 286.533 328.125 286.512C328.116 286.476 328.116 286.438 328.125 286.402H328.135ZM329.349 285.952C329.344 285.858 329.357 285.765 329.387 285.676C329.418 285.588 329.465 285.507 329.526 285.438C329.587 285.369 329.661 285.313 329.743 285.274C329.826 285.236 329.915 285.214 330.005 285.212C330.094 285.213 330.183 285.233 330.264 285.271C330.346 285.309 330.42 285.364 330.48 285.432C330.541 285.5 330.587 285.581 330.616 285.669C330.646 285.756 330.657 285.849 330.651 285.942C330.656 286.035 330.643 286.128 330.613 286.216C330.582 286.304 330.535 286.384 330.473 286.452C330.412 286.52 330.338 286.575 330.256 286.613C330.174 286.65 330.085 286.671 329.995 286.672C329.906 286.672 329.817 286.653 329.735 286.616C329.653 286.58 329.579 286.526 329.518 286.459C329.456 286.391 329.409 286.311 329.378 286.224C329.347 286.137 329.334 286.044 329.34 285.952H329.349ZM330.313 285.952C330.313 285.722 330.188 285.532 330.005 285.532C329.822 285.532 329.716 285.722 329.716 285.942C329.716 286.172 329.841 286.352 330.015 286.352C330.188 286.352 330.294 286.192 330.294 285.952H330.313Z" fill="#263238"/>
<path d="M410.563 268.613H334.931V277.133H410.563V268.613Z" fill="#F0F0F0"/>
<path d="M380.957 271.032H337.67V274.722H380.957V271.032Z" fill="#5DBD6D"/>
<path d="M324.192 271.583L323.228 274.003C323.213 274.045 323.185 274.081 323.148 274.104C323.112 274.128 323.068 274.138 323.025 274.133H322.948C322.895 274.109 322.853 274.064 322.831 274.008C322.809 273.952 322.81 273.889 322.833 273.833L323.681 271.733H322.659C322.63 271.733 322.602 271.727 322.576 271.716C322.549 271.704 322.525 271.687 322.506 271.665C322.486 271.644 322.47 271.618 322.46 271.59C322.45 271.563 322.446 271.533 322.447 271.503C322.447 271.445 322.469 271.389 322.509 271.348C322.549 271.306 322.603 271.283 322.659 271.283H324.057H324.144V271.413C324.144 271.413 324.192 271.573 324.192 271.583Z" fill="#263238"/>
<path d="M324.655 272.703C324.648 272.349 324.742 272.002 324.925 271.703C325.003 271.57 325.111 271.459 325.241 271.381C325.371 271.302 325.517 271.258 325.667 271.253C325.814 271.26 325.957 271.305 326.083 271.383C326.21 271.462 326.315 271.572 326.39 271.703C326.577 271.999 326.671 272.349 326.66 272.703C326.67 273.057 326.576 273.406 326.39 273.703C326.315 273.834 326.21 273.944 326.083 274.023C325.957 274.101 325.814 274.146 325.667 274.153C325.517 274.148 325.371 274.104 325.241 274.025C325.111 273.946 325.003 273.836 324.925 273.703C324.743 273.404 324.649 273.056 324.655 272.703ZM326.216 272.703C326.219 272.447 326.156 272.195 326.033 271.973C326.002 271.898 325.95 271.834 325.884 271.789C325.818 271.745 325.741 271.721 325.662 271.721C325.583 271.721 325.506 271.745 325.44 271.789C325.374 271.834 325.322 271.898 325.291 271.973C325.164 272.194 325.098 272.446 325.098 272.703C325.098 272.96 325.164 273.212 325.291 273.433C325.322 273.508 325.374 273.572 325.44 273.616C325.506 273.661 325.583 273.685 325.662 273.685C325.741 273.685 325.818 273.661 325.884 273.616C325.95 273.572 326.002 273.508 326.033 273.433C326.156 273.211 326.219 272.959 326.216 272.703Z" fill="#263238"/>
<path d="M327.422 271.983C327.417 271.89 327.43 271.796 327.46 271.708C327.49 271.619 327.537 271.538 327.599 271.469C327.66 271.4 327.734 271.345 327.816 271.306C327.898 271.267 327.987 271.246 328.077 271.243C328.167 271.244 328.255 271.264 328.337 271.302C328.419 271.34 328.492 271.395 328.553 271.463C328.613 271.532 328.659 271.612 328.689 271.7C328.718 271.788 328.73 271.881 328.723 271.973C328.735 272.069 328.726 272.166 328.699 272.258C328.671 272.349 328.625 272.434 328.563 272.506C328.502 272.578 328.426 272.636 328.342 272.676C328.257 272.715 328.165 272.735 328.073 272.735C327.98 272.735 327.888 272.715 327.803 272.676C327.719 272.636 327.643 272.578 327.582 272.506C327.52 272.434 327.474 272.349 327.447 272.258C327.419 272.166 327.411 272.069 327.422 271.973V271.983ZM328.386 271.983C328.386 271.753 328.261 271.563 328.077 271.563C327.894 271.563 327.788 271.753 327.788 271.973C327.788 272.203 327.913 272.393 328.087 272.393C328.261 272.393 328.376 272.193 328.376 271.983H328.386ZM327.885 273.893L329.697 271.323C329.711 271.3 329.731 271.281 329.755 271.268C329.779 271.256 329.805 271.251 329.832 271.253C329.874 271.253 329.914 271.27 329.945 271.299C329.975 271.329 329.993 271.37 329.996 271.413C330.005 271.446 330.005 271.481 329.996 271.513L328.183 274.083C328.167 274.107 328.145 274.125 328.12 274.138C328.095 274.15 328.067 274.155 328.039 274.153C328.019 274.155 328 274.152 327.982 274.145C327.964 274.138 327.947 274.127 327.933 274.113C327.92 274.098 327.909 274.081 327.902 274.062C327.896 274.043 327.893 274.023 327.894 274.003C327.877 273.97 327.87 273.931 327.875 273.893H327.885ZM329.099 273.443C329.094 273.35 329.107 273.257 329.138 273.169C329.168 273.081 329.215 273.001 329.277 272.933C329.338 272.865 329.412 272.81 329.494 272.772C329.576 272.734 329.665 272.714 329.755 272.713C329.844 272.714 329.933 272.734 330.014 272.772C330.096 272.81 330.169 272.865 330.23 272.933C330.291 273.002 330.337 273.082 330.366 273.17C330.396 273.258 330.407 273.351 330.401 273.443C330.407 273.536 330.396 273.63 330.366 273.718C330.337 273.806 330.291 273.887 330.23 273.956C330.17 274.026 330.097 274.081 330.015 274.12C329.933 274.159 329.845 274.181 329.755 274.183C329.663 274.183 329.573 274.164 329.489 274.126C329.405 274.089 329.329 274.033 329.267 273.964C329.204 273.894 329.156 273.812 329.126 273.723C329.095 273.633 329.083 273.538 329.09 273.443H329.099ZM330.063 273.443C330.063 273.213 329.938 273.033 329.765 273.033C329.591 273.033 329.466 273.213 329.466 273.443C329.466 273.683 329.591 273.863 329.765 273.863C329.938 273.863 330.044 273.663 330.044 273.443H330.063Z" fill="#263238"/>
<path d="M166 133.206C167.1 134.082 169.41 136.15 169.85 137.412C171.133 135.309 174.36 130.682 177 129" stroke="#5DBD6D" stroke-width="1.29412" stroke-linecap="round" stroke-linejoin="round"/>
<path d="M166 179.618C167.1 180.494 169.41 182.562 169.85 183.824C171.133 181.721 174.36 177.094 177 175.412" stroke="#5DBD6D" stroke-width="1.29412" stroke-linecap="round" stroke-linejoin="round"/>
<path d="M166 226.03C167.1 226.906 169.41 228.974 169.85 230.236C171.133 228.133 174.36 223.507 177 221.824" stroke="#5DBD6D" stroke-width="1.29412" stroke-linecap="round" stroke-linejoin="round"/>
<path d="M166 272.442C167.1 273.318 169.41 275.386 169.85 276.648C171.133 274.545 174.36 269.919 177 268.236" stroke="#5DBD6D" stroke-width="1.29412" stroke-linecap="round" stroke-linejoin="round"/>
<path d="M166 318.854C167.1 319.731 169.41 321.798 169.85 323.06C171.133 320.957 174.36 316.331 177 314.648" stroke="#5DBD6D" stroke-width="1.29412" stroke-linecap="round" stroke-linejoin="round"/>
</g>
<rect x="0.5" y="0.5" width="442.402" height="395" rx="9.5" stroke="#ECEBEB"/>
<defs>
<clipPath id="clip0_1_1190">
<rect width="443.402" height="396" rx="10" fill="white"/>
</clipPath>
</defs>
</svg>
